{"glyphs":{"0":{"ha":765,"x_min":43,"x_max":722,"o":"m 722 496 q 704 281 722 376 q 644 121 685 187 q 538 21 603 56 q 382 -14 473 -14 q 232 21 296 -14 q 126 121 168 56 q 63 281 84 187 q 43 496 43 376 q 61 711 43 616 q 121 871 80 806 q 226 972 161 937 q 382 1007 290 1007 q 531 972 467 1007 q 637 872 595 938 q 701 711 680 806 q 722 496 722 616 m 252 496 q 281 241 252 326 q 382 155 310 155 q 483 240 452 155 q 514 496 514 325 q 483 752 514 666 q 382 838 452 838 q 321 816 346 838 q 281 751 296 794 q 258 645 265 709 q 252 496 252 581 z "},"1":{"ha":765,"x_min":62,"x_max":554,"o":"m 554 0 l 345 0 l 345 574 q 345 616 345 591 q 346 668 345 641 q 348 722 347 694 q 350 771 349 749 q 338 759 347 767 q 320 741 330 751 q 299 721 310 731 q 278 703 288 711 l 164 611 l 62 737 l 382 991 l 554 991 l 554 0 z "},"2":{"ha":765,"x_min":53,"x_max":721,"o":"m 721 0 l 56 0 l 56 146 l 289 397 q 369 485 333 445 q 431 563 405 525 q 471 640 456 601 q 485 725 485 680 q 455 803 485 775 q 374 831 425 831 q 271 804 320 831 q 167 729 221 778 l 53 864 q 117 917 83 892 q 190 962 150 943 q 278 994 230 982 q 386 1006 326 1006 q 514 986 457 1006 q 610 930 570 966 q 672 842 650 894 q 693 726 693 791 q 673 615 693 668 q 617 510 652 562 q 535 409 582 459 q 436 306 489 358 l 317 186 l 317 176 l 721 176 l 721 0 z "},"3":{"ha":765,"x_min":39,"x_max":711,"o":"m 682 770 q 666 677 682 718 q 620 605 649 636 q 552 554 591 574 q 468 522 513 533 l 468 518 q 650 445 588 503 q 711 289 711 387 q 688 169 711 224 q 616 73 665 113 q 494 9 568 32 q 321 -14 420 -14 q 170 0 241 -14 q 39 40 100 13 l 39 218 q 103 190 69 202 q 171 169 137 178 q 238 157 205 161 q 300 153 271 153 q 397 163 358 153 q 458 194 435 174 q 491 241 481 214 q 501 301 501 269 q 489 356 501 332 q 448 398 476 381 q 374 425 420 416 q 262 435 329 435 l 192 435 l 192 582 l 261 582 q 365 593 323 582 q 431 624 406 604 q 466 669 456 643 q 476 724 476 694 q 443 806 476 777 q 339 836 410 836 q 278 830 307 836 q 226 813 250 823 q 182 792 202 804 q 146 768 162 780 l 40 908 q 102 947 68 929 q 175 978 136 964 q 260 998 214 991 q 357 1006 305 1006 q 490 990 430 1006 q 593 944 550 974 q 659 870 635 913 q 682 770 682 826 z "},"4":{"ha":765,"x_min":3,"x_max":736,"o":"m 736 205 l 616 205 l 616 0 l 412 0 l 412 205 l 3 205 l 3 351 l 424 991 l 616 991 l 616 368 l 736 368 l 736 205 m 412 368 l 412 536 q 413 562 412 545 q 414 600 413 578 q 415 643 414 621 q 417 686 416 665 q 419 721 418 706 q 421 743 420 736 l 415 743 q 388 683 403 715 q 353 619 372 651 l 187 368 l 412 368 z "},"5":{"ha":765,"x_min":58,"x_max":707,"o":"m 406 633 q 524 614 469 633 q 620 556 579 594 q 684 461 661 518 q 707 332 707 405 q 682 187 707 251 q 608 78 656 123 q 487 10 559 34 q 321 -14 414 -14 q 247 -10 283 -14 q 177 0 210 -7 q 113 16 143 6 q 58 40 83 26 l 58 221 q 113 196 82 208 q 178 175 144 184 q 245 162 212 167 q 310 157 279 157 q 448 194 401 157 q 496 314 496 232 q 449 426 496 387 q 306 464 403 464 q 268 462 288 464 q 229 456 248 460 q 192 449 210 453 q 161 441 174 446 l 78 486 l 115 991 l 639 991 l 639 814 l 297 814 l 281 619 q 331 629 302 624 q 406 633 360 633 z "},"6":{"ha":765,"x_min":52,"x_max":724,"o":"m 52 421 q 59 563 52 492 q 87 698 67 633 q 141 819 107 763 q 228 915 176 874 q 354 980 281 956 q 526 1003 428 1003 q 557 1002 541 1003 q 592 1001 574 1002 q 625 998 609 1000 q 654 993 642 996 l 654 825 q 600 835 629 831 q 542 839 571 839 q 391 816 450 839 q 298 753 332 793 q 249 655 263 712 q 231 529 234 598 l 239 529 q 272 575 252 553 q 317 611 291 596 q 375 635 342 627 q 447 644 407 644 q 563 623 511 644 q 650 562 614 602 q 705 464 686 522 q 724 330 724 406 q 701 186 724 250 q 636 78 678 122 q 534 10 594 33 q 400 -14 475 -14 q 263 13 327 -14 q 152 92 199 39 q 78 228 105 146 q 52 421 52 309 m 396 154 q 447 164 424 154 q 486 196 469 175 q 512 250 503 218 q 521 328 521 283 q 491 442 521 400 q 399 484 460 484 q 342 471 368 484 q 298 439 316 459 q 270 395 279 420 q 260 346 260 371 q 268 277 260 311 q 294 215 277 243 q 337 171 311 188 q 396 154 362 154 z "},"7":{"ha":765,"x_min":37,"x_max":721,"o":"m 140 0 l 493 814 l 37 814 l 37 990 l 721 990 l 721 859 l 359 0 l 140 0 z "},"8":{"ha":765,"x_min":49,"x_max":717,"o":"m 383 1004 q 500 989 445 1004 q 596 945 555 975 q 662 870 637 915 q 686 765 686 825 q 673 684 686 720 q 635 618 659 648 q 579 566 612 589 q 509 524 547 543 q 586 477 548 503 q 652 419 623 451 q 699 347 682 387 q 717 257 717 307 q 692 145 717 195 q 624 60 668 95 q 518 5 580 24 q 383 -14 457 -14 q 241 5 303 -14 q 136 57 178 23 q 71 140 93 91 q 49 252 49 190 q 64 343 49 302 q 104 416 79 384 q 165 474 130 449 q 239 518 199 499 q 176 564 205 539 q 126 619 147 589 q 92 686 104 649 q 79 766 79 722 q 104 870 79 825 q 171 944 129 914 q 268 989 213 975 q 383 1004 323 1004 m 243 264 q 252 214 243 237 q 278 175 260 191 q 321 150 295 159 q 380 140 347 140 q 487 174 452 140 q 522 262 522 208 q 510 314 522 291 q 480 356 498 336 q 437 391 461 375 q 390 422 414 408 l 375 432 q 321 400 345 417 q 279 362 296 382 q 252 317 262 341 q 243 264 243 292 m 382 851 q 340 844 359 851 q 307 825 321 838 q 285 793 293 812 q 277 750 277 774 q 285 701 277 722 q 308 664 294 680 q 342 636 323 648 q 383 611 361 623 q 423 635 404 622 q 457 664 442 648 q 480 702 471 681 q 489 750 489 723 q 481 793 489 774 q 458 825 473 812 q 425 844 444 838 q 382 851 405 851 z "},"9":{"ha":765,"x_min":43,"x_max":715,"o":"m 715 568 q 708 426 715 497 q 680 291 700 355 q 626 171 660 227 q 539 74 591 115 q 413 10 486 33 q 240 -14 339 -14 q 209 -13 226 -14 q 175 -11 192 -12 q 141 -8 157 -10 q 113 -4 125 -7 l 113 164 q 166 154 138 157 q 225 150 195 150 q 376 173 317 150 q 469 236 435 195 q 518 334 504 277 q 536 460 533 391 l 528 460 q 495 414 514 435 q 450 378 476 393 q 392 353 425 362 q 319 345 359 345 q 203 366 255 345 q 116 427 152 387 q 62 525 81 467 q 43 659 43 583 q 65 803 43 739 q 130 911 88 867 q 232 979 172 956 q 367 1003 292 1003 q 504 977 440 1003 q 614 897 568 951 q 688 762 661 844 q 715 568 715 680 m 371 835 q 320 825 343 835 q 280 793 297 814 q 255 739 264 772 q 245 661 245 706 q 276 547 245 589 q 368 505 307 505 q 425 517 399 505 q 469 549 451 530 q 497 593 488 569 q 507 643 507 618 q 499 712 507 677 q 473 773 490 746 q 430 818 456 801 q 371 835 405 835 z "}," ":{"ha":361,"x_min":0,"x_max":0,"o":""},"!":{"ha":397,"x_min":79,"x_max":317,"o":"m 282 329 l 117 329 l 82 991 l 317 991 l 282 329 m 79 97 q 89 151 79 129 q 114 186 98 173 q 152 206 130 200 q 199 212 174 212 q 244 206 222 212 q 281 186 265 200 q 307 151 298 173 q 317 97 317 129 q 307 45 317 66 q 281 9 298 23 q 244 -12 265 -5 q 199 -18 222 -18 q 152 -12 174 -18 q 114 9 130 -5 q 89 45 98 23 q 79 97 79 66 z "},"\"":{"ha":656,"x_min":90,"x_max":566,"o":"m 279 991 l 252 633 l 118 633 l 90 991 l 279 991 m 566 991 l 538 633 l 404 633 l 376 991 l 566 991 z "},"#":{"ha":897,"x_min":31,"x_max":867,"o":"m 677 572 l 646 415 l 821 415 l 821 275 l 619 275 l 567 0 l 418 0 l 471 275 l 339 275 l 288 0 l 142 0 l 192 275 l 31 275 l 31 415 l 218 415 l 250 572 l 79 572 l 79 714 l 275 714 l 328 990 l 476 990 l 424 714 l 558 714 l 611 990 l 757 990 l 704 714 l 867 714 l 867 572 l 677 572 m 366 415 l 498 415 l 530 572 l 397 572 l 366 415 z "},"$":{"ha":765,"x_min":66,"x_max":720,"o":"m 720 310 q 702 216 720 259 q 648 140 684 172 q 559 86 612 107 q 437 58 507 65 l 437 -81 l 345 -81 l 345 56 q 262 61 300 57 q 191 73 224 65 q 127 91 157 80 q 68 114 97 101 l 68 293 q 130 266 96 279 q 199 242 163 253 q 272 224 235 232 q 345 215 309 217 l 345 431 q 333 435 339 433 q 322 439 328 437 q 313 443 317 441 q 205 492 251 467 q 128 550 159 518 q 82 621 97 582 q 66 708 66 659 q 86 801 66 759 q 141 873 105 842 q 229 923 177 904 q 345 949 280 943 l 345 1055 l 437 1055 l 437 953 q 558 936 496 949 q 688 893 620 922 l 619 734 q 527 766 575 752 q 437 783 479 780 l 437 585 l 464 575 q 576 526 528 551 q 656 470 625 501 q 704 400 688 439 q 720 310 720 361 m 515 306 q 511 334 515 322 q 497 357 507 347 q 473 375 488 367 q 437 393 458 384 l 437 222 q 496 249 477 229 q 515 306 515 269 m 271 713 q 288 660 271 681 q 345 624 306 638 l 345 782 q 289 762 308 778 q 271 713 271 745 z "},"%":{"ha":1223,"x_min":43,"x_max":1181,"o":"m 214 694 q 229 566 214 608 q 278 524 244 524 q 327 566 311 524 q 343 694 343 608 q 278 864 343 864 q 229 822 244 864 q 214 694 214 781 m 514 696 q 500 564 514 623 q 457 466 486 506 q 383 405 428 426 q 277 383 338 383 q 175 405 219 383 q 102 466 132 426 q 58 564 73 506 q 43 696 43 623 q 56 827 43 769 q 99 924 70 884 q 172 985 127 964 q 277 1006 216 1006 q 379 985 335 1006 q 454 924 424 964 q 499 827 484 884 q 514 696 514 769 m 966 991 l 416 0 l 254 0 l 804 991 l 966 991 m 880 298 q 896 170 880 212 q 945 127 911 127 q 994 170 978 127 q 1010 298 1010 212 q 945 468 1010 468 q 896 426 911 468 q 880 298 880 385 m 1181 300 q 1167 169 1181 227 q 1124 71 1153 111 q 1050 9 1095 31 q 943 -12 1005 -12 q 842 9 886 -12 q 769 71 799 31 q 725 169 740 111 q 710 300 710 227 q 724 431 710 373 q 766 528 737 488 q 838 589 794 568 q 943 610 882 610 q 1046 589 1002 610 q 1120 528 1090 568 q 1165 431 1150 488 q 1181 300 1181 373 z "},"&":{"ha":1003,"x_min":56,"x_max":1000,"o":"m 1000 0 l 745 0 l 679 68 q 559 8 625 31 q 415 -14 494 -14 q 268 7 334 -14 q 154 64 201 27 q 81 153 107 101 q 56 268 56 205 q 68 361 56 320 q 104 435 81 402 q 160 496 127 469 q 233 547 193 523 q 190 607 208 578 q 161 664 172 636 q 145 721 150 692 q 140 779 140 749 q 161 874 140 832 q 219 945 182 916 q 307 990 256 975 q 419 1006 358 1006 q 527 991 477 1006 q 611 950 576 977 q 667 882 647 922 q 688 790 688 842 q 672 704 688 743 q 631 632 657 665 q 571 571 606 599 q 496 519 536 543 l 672 338 q 714 432 696 382 q 745 532 732 481 l 960 532 q 936 450 949 493 q 903 365 922 408 q 861 279 885 321 q 808 197 838 236 l 1000 0 m 273 288 q 284 234 273 258 q 314 194 295 210 q 360 169 334 178 q 416 160 386 160 q 492 171 457 160 q 555 200 526 181 l 346 424 q 292 363 311 395 q 273 288 273 330 m 496 762 q 489 798 496 783 q 471 822 482 812 q 446 836 460 831 q 418 840 432 840 q 388 836 403 840 q 360 823 372 832 q 339 799 347 814 q 332 761 332 783 q 347 694 332 726 q 390 632 363 663 q 469 692 442 662 q 496 762 496 722 z "},"'":{"ha":370,"x_min":90,"x_max":279,"o":"m 279 991 l 252 633 l 118 633 l 90 991 l 279 991 z "},"(":{"ha":471,"x_min":56,"x_max":429,"o":"m 56 380 q 68 548 56 465 q 105 708 80 630 q 169 857 130 785 q 260 991 207 928 l 429 991 q 285 704 334 861 q 236 382 236 547 q 248 221 236 301 q 285 64 260 141 q 345 -84 309 -12 q 428 -220 381 -156 l 260 -220 q 169 -89 207 -159 q 105 57 130 -19 q 68 215 80 134 q 56 380 56 296 z "},")":{"ha":471,"x_min":41,"x_max":415,"o":"m 415 380 q 403 215 415 296 q 366 57 391 134 q 302 -89 340 -19 q 211 -220 264 -159 l 43 -220 q 125 -84 90 -156 q 186 64 161 -12 q 222 221 210 141 q 235 382 235 301 q 186 704 235 547 q 41 991 137 861 l 211 991 q 302 857 264 928 q 366 708 340 785 q 403 548 391 630 q 415 380 415 465 z "},"*":{"ha":757,"x_min":43,"x_max":714,"o":"m 467 1055 l 439 806 l 692 876 l 714 705 l 484 689 l 635 488 l 481 406 l 375 618 l 282 407 l 122 488 l 272 689 l 43 707 l 69 876 l 317 806 l 289 1055 l 467 1055 z "},"+":{"ha":765,"x_min":60,"x_max":705,"o":"m 309 415 l 60 415 l 60 564 l 309 564 l 309 814 l 457 814 l 457 564 l 705 564 l 705 415 l 457 415 l 457 168 l 309 168 l 309 415 z "},",":{"ha":403,"x_min":43,"x_max":311,"o":"m 311 146 q 289 68 302 109 q 259 -16 275 26 q 226 -99 243 -58 q 192 -179 209 -141 l 43 -179 q 63 -93 53 -138 q 82 -4 73 -48 q 98 83 91 41 q 111 161 106 125 l 301 161 l 311 146 z "},"-":{"ha":447,"x_min":41,"x_max":406,"o":"m 41 288 l 41 457 l 406 457 l 406 288 l 41 288 z "},".":{"ha":396,"x_min":79,"x_max":317,"o":"m 79 97 q 89 151 79 129 q 114 186 98 173 q 152 206 130 200 q 199 212 174 212 q 244 206 222 212 q 281 186 265 200 q 307 151 298 173 q 317 97 317 129 q 307 45 317 66 q 281 9 298 23 q 244 -12 265 -5 q 199 -18 222 -18 q 152 -12 174 -18 q 114 9 130 -5 q 89 45 98 23 q 79 97 79 66 z "},"/":{"ha":574,"x_min":9,"x_max":567,"o":"m 567 991 l 197 0 l 9 0 l 379 991 l 567 991 z "},":":{"ha":396,"x_min":79,"x_max":317,"o":"m 79 97 q 89 151 79 129 q 114 186 98 173 q 152 206 130 200 q 199 212 174 212 q 244 206 222 212 q 281 186 265 200 q 307 151 298 173 q 317 97 317 129 q 307 45 317 66 q 281 9 298 23 q 244 -12 265 -5 q 199 -18 222 -18 q 152 -12 174 -18 q 114 9 130 -5 q 89 45 98 23 q 79 97 79 66 m 79 657 q 89 711 79 689 q 114 747 98 733 q 152 766 130 760 q 199 772 174 772 q 244 766 222 772 q 281 747 265 760 q 307 711 298 733 q 317 657 317 689 q 307 605 317 627 q 281 569 298 583 q 244 548 265 555 q 199 542 222 542 q 152 548 174 542 q 114 569 130 555 q 89 605 98 583 q 79 657 79 627 z "},";":{"ha":403,"x_min":43,"x_max":317,"o":"m 301 161 l 311 146 q 289 68 302 109 q 259 -16 275 26 q 226 -99 243 -58 q 192 -179 209 -141 l 43 -179 q 63 -93 53 -138 q 82 -4 73 -48 q 98 83 91 41 q 111 161 106 125 l 301 161 m 79 657 q 89 711 79 689 q 114 747 98 733 q 152 766 130 760 q 199 772 174 772 q 244 766 222 772 q 281 747 265 760 q 307 711 298 733 q 317 657 317 689 q 307 605 317 627 q 281 569 298 583 q 244 548 265 555 q 199 542 222 542 q 152 548 174 542 q 114 569 130 555 q 89 605 98 583 q 79 657 79 627 z "},"<":{"ha":765,"x_min":60,"x_max":705,"o":"m 705 138 l 60 435 l 60 532 l 705 868 l 705 705 l 269 490 l 705 300 l 705 138 z "},"=":{"ha":765,"x_min":60,"x_max":705,"o":"m 60 547 l 60 694 l 705 694 l 705 547 l 60 547 m 60 283 l 60 432 l 705 432 l 705 283 l 60 283 z "},">":{"ha":765,"x_min":60,"x_max":705,"o":"m 60 300 l 496 490 l 60 705 l 60 868 l 705 532 l 705 435 l 60 138 l 60 300 z "},"?":{"ha":637,"x_min":17,"x_max":600,"o":"m 179 329 l 179 379 q 186 442 179 414 q 208 495 193 470 q 245 545 222 521 q 301 595 269 569 q 349 635 330 617 q 381 670 369 652 q 399 706 393 687 q 404 750 404 725 q 378 814 404 789 q 298 839 352 839 q 198 819 252 839 q 86 771 144 800 l 17 921 q 80 953 46 938 q 152 980 115 968 q 227 999 189 992 q 301 1006 264 1006 q 426 989 370 1006 q 520 941 481 972 q 579 863 559 909 q 600 760 600 818 q 591 683 600 717 q 563 621 581 650 q 516 565 544 592 q 450 509 488 538 q 404 470 422 486 q 376 438 386 453 q 362 407 366 423 q 358 370 358 391 l 358 329 l 179 329 m 157 97 q 166 151 157 129 q 191 186 175 173 q 230 206 208 200 q 277 212 252 212 q 322 206 300 212 q 359 186 343 200 q 385 151 376 173 q 395 97 395 129 q 385 45 395 66 q 359 9 376 23 q 322 -12 343 -5 q 277 -18 300 -18 q 230 -12 252 -18 q 191 9 208 -5 q 166 45 175 23 q 157 97 157 66 z "},"@":{"ha":1203,"x_min":69,"x_max":1135,"o":"m 1135 510 q 1119 382 1135 446 q 1073 270 1104 319 q 995 189 1042 220 q 884 158 947 158 q 835 164 858 158 q 793 183 812 171 q 761 211 774 195 q 739 245 747 227 l 729 245 q 699 213 716 229 q 661 184 682 197 q 615 165 640 172 q 559 158 589 158 q 459 177 503 158 q 386 232 416 197 q 340 318 356 268 q 325 428 325 368 q 346 556 325 498 q 406 657 367 614 q 502 723 446 699 q 628 746 558 746 q 691 743 659 746 q 754 734 724 739 q 810 722 784 728 q 856 708 837 715 l 842 424 q 840 395 840 409 q 840 376 840 380 q 845 330 840 348 q 856 301 849 311 q 872 286 863 290 q 892 282 882 282 q 933 300 916 282 q 962 350 951 319 q 980 423 974 381 q 986 511 986 465 q 960 666 986 598 q 889 781 935 734 q 780 852 843 827 q 643 876 717 876 q 460 842 539 876 q 328 745 381 807 q 247 598 275 683 q 220 412 220 513 q 243 247 220 319 q 314 125 267 174 q 429 51 361 76 q 587 25 498 25 q 665 30 625 25 q 745 43 705 35 q 823 62 785 51 q 896 87 861 74 l 896 -43 q 754 -88 832 -71 q 589 -104 677 -104 q 369 -70 466 -104 q 206 31 273 -35 q 104 192 140 97 q 69 408 69 288 q 87 569 69 492 q 140 712 106 646 q 225 832 175 779 q 338 925 275 886 q 479 984 402 963 q 643 1004 555 1004 q 840 970 750 1004 q 996 872 930 936 q 1098 716 1061 808 q 1135 510 1135 625 m 482 425 q 508 316 482 349 q 576 282 534 282 q 626 295 605 282 q 660 333 646 309 q 680 390 673 357 q 689 465 687 424 l 697 615 q 665 621 684 618 q 628 623 647 623 q 560 606 588 623 q 515 561 532 589 q 490 497 498 533 q 482 425 482 462 z "},"A":{"ha":903,"x_min":0,"x_max":903,"o":"m 690 0 l 623 236 l 281 236 l 212 0 l 0 0 l 322 996 l 579 996 l 903 0 l 690 0 m 574 412 l 510 629 q 498 669 506 642 q 480 731 490 697 q 463 798 471 764 q 452 856 455 832 q 445 821 449 841 q 434 778 440 800 q 422 732 429 755 q 411 688 416 709 q 401 652 406 668 q 395 629 397 637 l 332 412 l 574 412 z "},"B":{"ha":892,"x_min":125,"x_max":818,"o":"m 125 991 l 415 991 q 579 978 509 991 q 697 936 650 965 q 769 858 745 906 q 793 741 793 810 q 783 662 793 699 q 753 597 772 625 q 705 551 733 570 q 640 526 677 532 l 640 519 q 710 496 677 511 q 766 454 742 481 q 804 387 790 427 q 818 288 818 346 q 794 166 818 220 q 726 76 770 113 q 618 20 682 39 q 475 0 555 0 l 125 0 l 125 991 m 335 599 l 444 599 q 510 606 484 599 q 553 627 536 613 q 576 663 569 642 q 583 713 583 684 q 548 794 583 770 q 435 819 512 819 l 335 819 l 335 599 m 335 432 l 335 174 l 458 174 q 528 183 500 174 q 573 210 556 193 q 598 253 591 228 q 606 309 606 278 q 598 359 606 336 q 573 398 591 382 q 526 423 555 414 q 453 432 496 432 l 335 432 z "},"C":{"ha":885,"x_min":81,"x_max":836,"o":"m 546 831 q 439 807 486 831 q 361 740 393 784 q 313 634 330 696 q 297 493 297 571 q 312 352 297 414 q 356 248 326 290 q 434 183 387 205 q 546 161 481 161 q 667 175 606 161 q 799 214 728 189 l 799 37 q 734 14 766 24 q 669 -1 703 5 q 601 -11 636 -7 q 526 -14 566 -14 q 328 23 412 -14 q 189 126 243 60 q 107 286 134 193 q 81 494 81 380 q 111 701 81 607 q 201 863 142 795 q 347 968 260 930 q 546 1006 433 1006 q 694 987 620 1006 q 836 936 768 968 l 768 765 q 656 811 713 791 q 546 831 600 831 z "},"D":{"ha":972,"x_min":125,"x_max":892,"o":"m 892 505 q 858 285 892 380 q 759 127 823 191 q 600 32 694 64 q 386 0 506 0 l 125 0 l 125 991 l 415 991 q 612 960 524 991 q 762 868 700 929 q 858 715 825 806 q 892 505 892 625 m 679 500 q 662 643 679 583 q 614 742 646 703 q 537 800 583 781 q 432 819 491 819 l 335 819 l 335 174 l 412 174 q 612 255 545 174 q 679 500 679 336 z "},"E":{"ha":778,"x_min":125,"x_max":696,"o":"m 696 0 l 125 0 l 125 991 l 696 991 l 696 819 l 335 819 l 335 602 l 671 602 l 671 429 l 335 429 l 335 174 l 696 174 l 696 0 z "},"F":{"ha":762,"x_min":125,"x_max":693,"o":"m 332 0 l 125 0 l 125 991 l 693 991 l 693 819 l 332 819 l 332 564 l 668 564 l 668 392 l 332 392 l 332 0 z "},"G":{"ha":1006,"x_min":81,"x_max":895,"o":"m 501 557 l 895 557 l 895 43 q 815 19 855 30 q 732 2 775 9 q 642 -9 689 -5 q 542 -14 595 -14 q 345 19 431 -14 q 200 117 259 52 q 111 277 142 182 q 81 497 81 372 q 115 708 81 614 q 215 868 149 802 q 377 970 281 935 q 599 1006 474 1006 q 754 989 678 1006 q 893 945 830 972 l 823 777 q 719 815 777 800 q 597 831 661 831 q 473 807 528 831 q 378 739 418 783 q 318 632 339 694 q 297 493 297 570 q 312 359 297 420 q 357 254 326 298 q 438 186 389 210 q 555 161 487 161 q 631 165 600 161 q 689 175 662 170 l 689 382 l 501 382 l 501 557 z "},"H":{"ha":1007,"x_min":125,"x_max":882,"o":"m 882 0 l 672 0 l 672 428 l 335 428 l 335 0 l 125 0 l 125 991 l 335 991 l 335 603 l 672 603 l 672 991 l 882 991 l 882 0 z "},"I":{"ha":541,"x_min":45,"x_max":496,"o":"m 496 0 l 45 0 l 45 119 l 165 175 l 165 817 l 45 872 l 45 991 l 496 991 l 496 872 l 375 817 l 375 175 l 496 119 l 496 0 z "},"J":{"ha":460,"x_min":-135,"x_max":335,"o":"m -1 -292 q -79 -287 -45 -292 q -135 -277 -112 -283 l -135 -102 q -82 -111 -110 -107 q -22 -115 -55 -115 q 36 -109 9 -115 q 82 -85 62 -102 q 114 -41 102 -68 q 125 29 125 -13 l 125 991 l 335 991 l 335 36 q 310 -111 335 -50 q 241 -213 286 -173 q 135 -273 197 -254 q -1 -292 73 -292 z "},"K":{"ha":880,"x_min":125,"x_max":880,"o":"m 880 0 l 642 0 l 414 412 l 335 354 l 335 0 l 125 0 l 125 991 l 335 991 l 335 514 l 418 654 l 644 991 l 878 991 l 561 545 l 880 0 z "},"L":{"ha":743,"x_min":125,"x_max":696,"o":"m 125 0 l 125 991 l 335 991 l 335 174 l 696 174 l 696 0 l 125 0 z "},"M":{"ha":1268,"x_min":125,"x_max":1143,"o":"m 524 0 l 306 778 l 300 778 q 307 657 304 715 q 309 606 308 632 q 311 553 310 579 q 312 504 312 528 q 313 461 313 480 l 313 0 l 125 0 l 125 991 l 411 991 l 625 233 l 629 233 l 857 991 l 1143 991 l 1143 0 l 947 0 l 947 469 q 948 509 947 487 q 949 557 948 532 q 950 608 949 582 q 952 658 951 633 q 957 777 955 715 l 951 777 l 717 0 l 524 0 z "},"N":{"ha":1088,"x_min":125,"x_max":962,"o":"m 962 0 l 696 0 l 306 750 l 300 750 q 307 646 304 698 q 311 554 309 602 q 313 467 313 505 l 313 0 l 125 0 l 125 991 l 390 991 l 779 249 l 783 249 q 779 351 781 300 q 777 395 778 372 q 775 440 776 418 q 774 484 774 463 q 774 522 774 505 l 774 991 l 962 991 l 962 0 z "},"O":{"ha":1050,"x_min":81,"x_max":970,"o":"m 970 497 q 943 288 970 382 q 861 127 916 194 q 723 23 806 60 q 525 -14 639 -14 q 327 23 411 -14 q 189 127 243 60 q 107 289 134 194 q 81 498 81 383 q 107 708 81 614 q 189 868 134 802 q 328 971 244 935 q 526 1007 412 1007 q 724 971 640 1007 q 862 868 807 935 q 943 707 916 801 q 970 497 970 613 m 297 497 q 311 357 297 419 q 352 252 324 295 q 423 186 380 209 q 525 163 466 163 q 628 186 585 163 q 699 252 671 209 q 740 357 726 295 q 753 497 753 419 q 740 637 753 575 q 699 743 726 699 q 629 809 671 786 q 526 832 586 832 q 424 809 467 832 q 352 743 380 786 q 311 637 324 699 q 297 497 297 575 z "},"P":{"ha":831,"x_min":125,"x_max":768,"o":"m 335 525 l 376 525 q 510 560 465 525 q 555 675 555 595 q 515 784 555 749 q 389 819 475 819 l 335 819 l 335 525 m 768 682 q 749 557 768 617 q 684 452 729 498 q 565 380 639 407 q 383 353 492 353 l 335 353 l 335 0 l 125 0 l 125 991 l 400 991 q 565 970 496 991 q 680 909 635 949 q 747 812 725 869 q 768 682 768 755 z "},"Q":{"ha":1050,"x_min":81,"x_max":999,"o":"m 970 497 q 957 346 970 416 q 917 216 943 275 q 849 113 890 158 q 754 37 809 67 l 999 -236 l 729 -236 l 547 -12 q 538 -13 543 -12 q 531 -14 535 -14 q 525 -14 528 -14 q 327 23 411 -14 q 189 127 243 60 q 107 289 134 194 q 81 498 81 383 q 107 708 81 614 q 189 868 134 802 q 328 971 244 935 q 526 1007 412 1007 q 724 971 640 1007 q 862 868 807 935 q 943 707 916 801 q 970 497 970 613 m 297 497 q 311 357 297 419 q 352 252 324 295 q 423 186 380 209 q 525 163 466 163 q 628 186 585 163 q 699 252 671 209 q 740 357 726 295 q 753 497 753 419 q 740 637 753 575 q 699 743 726 699 q 629 809 671 786 q 526 832 586 832 q 424 809 467 832 q 352 743 380 786 q 311 637 324 699 q 297 497 297 575 z "},"R":{"ha":875,"x_min":125,"x_max":875,"o":"m 335 551 l 392 551 q 517 586 479 551 q 555 689 555 621 q 515 789 555 760 q 389 819 474 819 l 335 819 l 335 551 m 335 380 l 335 0 l 125 0 l 125 991 l 396 991 q 677 918 587 991 q 768 694 768 844 q 755 602 768 644 q 719 529 741 561 q 666 472 696 496 q 604 432 637 448 q 739 216 680 311 q 789 137 765 176 q 832 68 813 98 q 863 19 851 37 l 875 0 l 642 0 l 427 380 l 335 380 z "},"S":{"ha":728,"x_min":64,"x_max":668,"o":"m 668 275 q 645 156 668 209 q 579 65 623 102 q 472 7 535 27 q 326 -14 408 -14 q 188 1 254 -14 q 64 46 121 16 l 64 241 q 130 211 96 226 q 197 185 163 197 q 266 167 231 174 q 334 160 300 160 q 393 168 368 160 q 433 190 418 176 q 455 223 448 203 q 463 265 463 242 q 451 314 463 293 q 417 354 439 336 q 366 391 396 373 q 298 428 336 408 q 229 467 267 444 q 156 525 190 490 q 98 607 121 559 q 75 724 75 656 q 97 843 75 790 q 160 931 119 895 q 259 987 201 968 q 389 1006 317 1006 q 459 1001 425 1006 q 527 987 493 996 q 594 966 560 979 q 664 936 628 953 l 596 772 q 539 798 566 787 q 488 816 513 808 q 438 827 463 823 q 390 831 414 831 q 309 803 337 831 q 281 728 281 774 q 289 683 281 703 q 316 647 298 664 q 365 612 335 630 q 436 572 394 595 q 530 517 487 545 q 603 455 572 489 q 651 377 634 420 q 668 275 668 334 z "},"T":{"ha":762,"x_min":28,"x_max":734,"o":"m 486 0 l 277 0 l 277 817 l 28 817 l 28 991 l 734 991 l 734 817 l 486 817 l 486 0 z "},"U":{"ha":994,"x_min":118,"x_max":876,"o":"m 876 991 l 876 350 q 853 206 876 273 q 782 91 829 140 q 662 14 734 42 q 493 -14 590 -14 q 331 13 401 -14 q 214 87 261 39 q 142 202 167 135 q 118 353 118 270 l 118 991 l 328 991 l 328 368 q 338 274 328 313 q 371 211 349 235 q 424 174 392 186 q 498 163 456 163 q 627 214 587 163 q 667 370 667 266 l 667 991 l 876 991 z "},"V":{"ha":847,"x_min":0,"x_max":847,"o":"m 635 991 l 847 991 l 538 0 l 309 0 l 0 991 l 212 991 l 380 395 q 390 356 384 383 q 402 296 395 329 q 414 231 408 264 q 424 176 420 199 q 433 231 427 199 q 446 296 439 264 q 459 355 453 328 q 469 395 466 382 l 635 991 z "},"W":{"ha":1287,"x_min":0,"x_max":1287,"o":"m 1048 0 l 810 0 l 688 489 q 681 517 685 499 q 673 559 677 536 q 663 607 668 582 q 654 656 659 632 q 647 700 650 680 q 643 732 644 720 q 638 700 642 720 q 631 656 635 680 q 623 608 627 633 q 614 559 618 583 q 606 517 610 536 q 599 488 602 498 l 478 0 l 239 0 l 0 991 l 207 991 l 319 450 q 325 419 321 439 q 334 372 329 398 q 343 318 338 347 q 353 262 349 290 q 362 212 358 235 q 368 174 366 189 q 374 212 370 189 q 382 261 378 235 q 391 315 386 287 q 400 367 396 342 q 408 409 404 391 q 414 436 412 428 l 551 991 l 736 991 l 873 436 q 879 409 876 428 q 887 367 883 391 q 897 315 892 342 q 906 261 901 287 q 914 212 910 235 q 920 174 918 189 q 925 212 922 189 q 934 262 929 235 q 944 318 939 290 q 954 372 949 347 q 962 419 958 398 q 968 450 966 439 l 1080 991 l 1287 991 l 1048 0 z "},"X":{"ha":871,"x_min":0,"x_max":871,"o":"m 871 0 l 631 0 l 428 375 l 225 0 l 0 0 l 301 511 l 21 991 l 253 991 l 439 635 l 621 991 l 847 991 l 564 500 l 871 0 z "},"Y":{"ha":811,"x_min":0,"x_max":811,"o":"m 406 583 l 585 991 l 811 991 l 510 386 l 510 0 l 301 0 l 301 379 l 0 991 l 228 991 l 406 583 z "},"Z":{"ha":749,"x_min":33,"x_max":715,"o":"m 715 0 l 33 0 l 33 136 l 453 818 l 46 818 l 46 991 l 703 991 l 703 856 l 283 174 l 715 174 l 715 0 z "},"[":{"ha":460,"x_min":97,"x_max":425,"o":"m 425 -220 l 97 -220 l 97 991 l 425 991 l 425 848 l 273 848 l 273 -77 l 425 -77 l 425 -220 z "},"\\":{"ha":574,"x_min":8,"x_max":566,"o":"m 196 991 l 566 0 l 378 0 l 8 991 l 196 991 z "},"]":{"ha":460,"x_min":35,"x_max":363,"o":"m 35 -77 l 186 -77 l 186 848 l 35 848 l 35 991 l 363 991 l 363 -220 l 35 -220 l 35 -77 z "},"^":{"ha":739,"x_min":5,"x_max":736,"o":"m 5 353 l 302 997 l 400 997 l 736 353 l 574 353 l 355 789 q 260 569 309 680 q 165 353 212 458 l 5 353 z "},"_":{"ha":571,"x_min":-3,"x_max":574,"o":"m 574 -220 l -3 -220 l -3 -125 l 574 -125 l 574 -220 z "},"`":{"ha":802,"x_min":225,"x_max":575,"o":"m 437 842 q 382 889 414 861 q 319 947 350 917 q 262 1004 288 977 q 225 1050 236 1031 l 225 1064 l 457 1064 q 483 1014 468 1041 q 513 959 497 986 q 545 905 528 931 q 575 860 561 880 l 575 842 l 437 842 z "},"a":{"ha":798,"x_min":58,"x_max":693,"o":"m 549 0 l 509 103 l 503 103 q 458 51 480 73 q 409 14 435 28 q 350 -7 382 0 q 273 -14 317 -14 q 188 1 227 -14 q 120 45 149 16 q 75 120 91 75 q 58 227 58 165 q 136 405 58 347 q 367 468 213 462 l 488 472 l 488 529 q 460 598 488 576 q 385 621 433 621 q 289 606 336 621 q 196 568 243 592 l 129 705 q 255 755 186 737 q 400 774 324 774 q 617 707 542 774 q 693 505 693 641 l 693 0 l 549 0 m 488 351 l 419 349 q 349 338 378 347 q 303 312 321 328 q 278 274 286 296 q 271 225 271 252 q 294 158 271 178 q 354 138 317 138 q 407 148 382 138 q 449 177 431 157 q 477 224 467 196 q 488 289 488 252 l 488 351 z "},"b":{"ha":844,"x_min":109,"x_max":775,"o":"m 513 772 q 619 747 571 772 q 702 673 667 722 q 756 550 736 623 q 775 380 775 477 q 756 209 775 283 q 701 86 736 136 q 616 12 666 37 q 507 -14 567 -14 q 440 -5 469 -14 q 387 16 410 3 q 347 47 364 30 q 315 83 330 64 l 301 83 l 267 0 l 109 0 l 109 1055 l 315 1055 l 315 810 q 314 761 315 787 q 311 713 313 735 q 307 660 309 686 l 315 660 q 348 704 330 684 q 390 740 366 724 q 445 764 414 755 q 513 772 475 772 m 443 607 q 384 594 408 607 q 345 557 360 582 q 323 493 330 532 q 315 404 317 455 l 315 382 q 322 284 315 327 q 343 213 328 241 q 383 169 358 184 q 444 154 408 154 q 535 213 506 154 q 564 383 564 271 q 535 551 564 495 q 443 607 506 607 z "},"c":{"ha":693,"x_min":69,"x_max":648,"o":"m 424 -14 q 277 9 342 -14 q 165 78 212 31 q 94 199 119 125 q 69 375 69 273 q 95 565 69 488 q 166 687 120 641 q 278 753 213 733 q 424 772 344 772 q 540 758 482 772 q 648 718 597 744 l 589 561 q 503 593 544 581 q 424 606 461 606 q 315 548 349 606 q 281 376 281 491 q 315 208 281 262 q 421 154 349 154 q 528 169 480 154 q 627 208 576 184 l 627 36 q 578 14 602 24 q 530 -1 554 5 q 480 -11 506 -7 q 424 -14 454 -14 z "},"d":{"ha":844,"x_min":69,"x_max":736,"o":"m 332 -14 q 225 12 273 -14 q 142 86 177 37 q 89 208 108 135 q 69 378 69 281 q 89 549 69 475 q 143 672 108 623 q 229 747 179 722 q 338 772 278 772 q 405 764 374 772 q 460 740 435 755 q 504 705 484 725 q 538 661 523 685 l 545 661 q 537 715 541 688 q 531 764 534 738 q 529 812 529 790 l 529 1055 l 736 1055 l 736 0 l 578 0 l 538 98 l 529 98 q 496 55 515 75 q 454 19 478 34 q 400 -5 430 4 q 332 -14 370 -14 m 407 151 q 469 164 444 151 q 511 202 495 176 q 535 265 527 227 q 543 354 543 303 l 543 376 q 536 474 543 431 q 514 546 530 517 q 472 589 498 574 q 406 604 446 604 q 310 546 340 604 q 279 375 279 487 q 310 207 279 263 q 407 151 341 151 z "},"e":{"ha":807,"x_min":69,"x_max":741,"o":"m 415 625 q 324 587 360 625 q 282 465 288 548 l 546 465 q 537 529 545 500 q 513 579 529 558 q 472 613 496 601 q 415 625 448 625 m 441 -14 q 292 10 360 -14 q 174 82 223 34 q 97 202 124 130 q 69 374 69 275 q 94 548 69 473 q 164 672 119 623 q 273 747 210 722 q 414 772 336 772 q 550 750 489 772 q 653 683 610 727 q 718 575 695 639 q 741 428 741 511 l 741 328 l 278 328 q 292 249 279 284 q 327 190 304 214 q 382 153 350 166 q 456 140 414 140 q 521 144 490 140 q 581 155 552 148 q 639 174 610 163 q 697 200 667 185 l 697 40 q 643 16 670 26 q 585 -1 615 6 q 519 -11 554 -7 q 441 -14 484 -14 z "},"f":{"ha":538,"x_min":28,"x_max":570,"o":"m 503 603 l 349 603 l 349 0 l 142 0 l 142 603 l 28 603 l 28 703 l 142 758 l 142 814 q 159 934 142 886 q 210 1010 177 982 q 288 1051 242 1039 q 392 1063 334 1063 q 497 1053 454 1063 q 570 1031 540 1043 l 521 879 q 477 892 500 886 q 422 899 454 899 q 365 872 382 899 q 349 806 349 846 l 349 758 l 503 758 l 503 603 z "},"g":{"ha":766,"x_min":14,"x_max":736,"o":"m 736 757 l 736 644 l 625 610 q 644 562 639 587 q 650 509 650 537 q 631 403 650 451 q 577 321 613 355 q 487 269 541 288 q 361 250 433 250 q 327 252 345 250 q 300 256 309 254 q 278 232 286 244 q 271 201 271 219 q 279 179 271 187 q 302 165 288 170 q 336 158 317 160 q 375 157 355 157 l 493 157 q 591 144 548 157 q 665 106 635 132 q 711 40 695 80 q 728 -54 728 1 q 702 -171 728 -119 q 625 -259 676 -222 q 498 -314 574 -295 q 322 -334 422 -334 q 187 -319 245 -334 q 91 -277 130 -304 q 33 -211 52 -250 q 14 -123 14 -172 q 28 -52 14 -82 q 66 1 42 -21 q 120 36 90 22 q 182 57 150 50 q 154 74 168 63 q 129 99 140 85 q 110 131 117 113 q 103 167 103 148 q 110 206 103 189 q 128 239 116 224 q 159 268 140 254 q 200 296 177 281 q 105 378 140 321 q 71 513 71 435 q 90 622 71 574 q 145 704 109 670 q 236 755 182 737 q 361 772 290 772 q 391 771 374 772 q 425 767 408 769 q 456 762 441 764 q 478 757 470 759 l 736 757 m 193 -107 q 200 -140 193 -124 q 224 -168 208 -156 q 267 -188 240 -180 q 332 -195 293 -195 q 491 -165 437 -195 q 545 -85 545 -135 q 511 -28 545 -42 q 408 -14 478 -14 l 313 -14 q 273 -18 294 -14 q 235 -33 252 -22 q 205 -62 217 -44 q 193 -107 193 -80 m 268 510 q 291 414 268 448 q 361 380 314 380 q 431 414 410 380 q 453 510 453 448 q 432 607 453 571 q 361 643 410 643 q 268 510 268 643 z "},"h":{"ha":871,"x_min":109,"x_max":766,"o":"m 766 0 l 559 0 l 559 443 q 534 566 559 525 q 456 607 509 607 q 389 591 416 607 q 345 543 361 574 q 322 464 329 511 q 315 357 315 417 l 315 0 l 109 0 l 109 1055 l 315 1055 l 315 840 q 314 780 315 812 q 311 722 313 749 q 306 661 308 691 l 317 661 q 401 746 350 720 q 518 772 453 772 q 620 756 574 772 q 699 707 666 741 q 749 620 731 673 q 766 494 766 568 l 766 0 z "},"i":{"ha":424,"x_min":100,"x_max":325,"o":"m 100 954 q 109 1003 100 983 q 133 1034 117 1022 q 169 1050 148 1046 q 212 1055 189 1055 q 256 1050 235 1055 q 291 1034 276 1046 q 316 1003 307 1022 q 325 954 325 983 q 316 906 325 926 q 291 874 307 886 q 256 858 276 863 q 212 852 235 852 q 169 858 189 852 q 133 874 148 863 q 109 906 117 886 q 100 954 100 926 m 315 0 l 109 0 l 109 758 l 315 758 l 315 0 z "},"j":{"ha":424,"x_min":-56,"x_max":325,"o":"m 69 -334 q 2 -329 37 -334 q -56 -317 -33 -324 l -56 -154 q -16 -164 -35 -161 q 25 -167 2 -167 q 57 -162 42 -167 q 84 -143 73 -157 q 102 -108 95 -130 q 109 -52 109 -86 l 109 758 l 315 758 l 315 -82 q 302 -180 315 -134 q 259 -260 289 -226 q 183 -314 230 -294 q 69 -334 136 -334 m 100 954 q 109 1003 100 983 q 133 1034 117 1022 q 169 1050 148 1046 q 212 1055 189 1055 q 256 1050 235 1055 q 291 1034 276 1046 q 316 1003 307 1022 q 325 954 325 983 q 316 906 325 926 q 291 874 307 886 q 256 858 276 863 q 212 852 235 852 q 169 858 189 852 q 133 874 148 863 q 109 906 117 886 q 100 954 100 926 z "},"k":{"ha":819,"x_min":109,"x_max":819,"o":"m 307 412 l 383 528 l 568 758 l 802 758 l 528 429 l 819 0 l 581 0 l 396 292 l 315 236 l 315 0 l 109 0 l 109 1055 l 315 1055 l 315 585 l 304 412 l 307 412 z "},"l":{"ha":424,"x_min":109,"x_max":315,"o":"m 315 0 l 109 0 l 109 1055 l 315 1055 l 315 0 z "},"m":{"ha":1308,"x_min":109,"x_max":1204,"o":"m 760 0 l 553 0 l 553 443 q 528 566 553 525 q 452 607 504 607 q 386 591 412 607 q 345 543 360 574 q 322 464 329 511 q 315 357 315 417 l 315 0 l 109 0 l 109 758 l 267 758 l 294 661 l 306 661 q 345 711 322 690 q 395 746 368 732 q 452 766 422 760 q 514 772 483 772 q 647 746 592 772 q 730 661 701 719 l 747 661 q 787 711 764 690 q 838 746 810 732 q 896 766 865 760 q 958 772 927 772 q 1142 706 1080 772 q 1204 494 1204 640 l 1204 0 l 997 0 l 997 443 q 972 566 997 525 q 896 607 948 607 q 791 548 822 607 q 760 380 760 490 l 760 0 z "},"n":{"ha":871,"x_min":109,"x_max":766,"o":"m 766 0 l 559 0 l 559 443 q 535 566 559 525 q 456 607 510 607 q 388 591 415 607 q 345 543 361 574 q 322 464 329 511 q 315 357 315 417 l 315 0 l 109 0 l 109 758 l 267 758 l 294 661 l 306 661 q 346 711 322 690 q 397 746 369 732 q 456 766 425 760 q 519 772 487 772 q 621 756 575 772 q 699 707 666 741 q 749 620 731 673 q 766 494 766 568 l 766 0 z "},"o":{"ha":832,"x_min":69,"x_max":762,"o":"m 281 380 q 313 210 281 267 q 416 153 345 153 q 519 210 488 153 q 551 380 551 268 q 519 550 551 494 q 415 606 488 606 q 312 550 344 606 q 281 380 281 494 m 762 380 q 738 212 762 286 q 669 89 714 139 q 559 13 624 39 q 414 -14 494 -14 q 275 13 338 -14 q 166 89 212 39 q 95 212 121 139 q 69 380 69 286 q 93 548 69 475 q 162 671 117 621 q 272 747 208 721 q 418 772 336 772 q 556 747 493 772 q 665 671 619 721 q 736 548 711 621 q 762 380 762 475 z "},"p":{"ha":844,"x_min":109,"x_max":775,"o":"m 507 -14 q 440 -5 470 -14 q 388 16 411 3 q 347 47 365 30 q 315 83 330 64 l 304 83 q 310 39 307 60 q 314 2 312 21 q 315 -26 315 -16 l 315 -334 l 109 -334 l 109 758 l 277 758 l 306 660 l 315 660 q 348 703 330 683 q 390 739 366 724 q 445 763 414 754 q 513 772 475 772 q 620 747 572 772 q 703 673 668 722 q 756 550 737 623 q 775 380 775 477 q 755 210 775 283 q 700 86 736 136 q 615 12 665 37 q 507 -14 566 -14 m 443 607 q 384 594 408 607 q 345 557 360 582 q 323 493 330 532 q 315 404 317 455 l 315 382 q 322 284 315 327 q 343 213 328 241 q 383 169 358 184 q 444 154 408 154 q 535 213 506 154 q 564 383 564 271 q 535 551 564 495 q 443 607 506 607 z "},"q":{"ha":844,"x_min":69,"x_max":736,"o":"m 408 149 q 471 161 446 149 q 512 199 496 174 q 535 262 528 224 q 543 351 543 300 l 543 376 q 537 474 543 431 q 514 546 530 517 q 472 589 498 574 q 407 604 446 604 q 311 546 342 604 q 281 375 281 487 q 312 205 281 261 q 408 149 342 149 m 332 -14 q 224 12 273 -14 q 142 86 176 37 q 88 208 107 135 q 69 378 69 281 q 89 548 69 475 q 143 672 108 622 q 229 747 179 722 q 338 772 278 772 q 406 764 376 772 q 461 740 437 755 q 505 705 486 725 q 539 661 524 685 l 545 661 l 561 758 l 736 758 l 736 -334 l 529 -334 l 529 -16 q 531 17 529 -3 q 534 54 532 36 q 538 98 536 76 l 529 98 q 497 55 515 75 q 455 19 479 34 q 400 -5 431 4 q 332 -14 370 -14 z "},"r":{"ha":603,"x_min":109,"x_max":570,"o":"m 504 772 q 522 772 512 772 q 541 771 532 772 q 558 769 550 770 q 570 766 566 768 l 570 572 q 555 575 564 574 q 535 577 545 576 q 514 579 524 578 q 497 579 504 579 q 424 569 457 579 q 366 536 390 559 q 329 476 342 513 q 315 386 315 439 l 315 0 l 109 0 l 109 758 l 265 758 l 296 644 l 306 644 q 341 697 322 673 q 384 738 360 721 q 436 763 407 754 q 504 772 466 772 z "},"s":{"ha":668,"x_min":66,"x_max":614,"o":"m 614 225 q 592 121 614 165 q 530 46 570 76 q 433 1 490 16 q 306 -14 376 -14 q 237 -11 269 -14 q 176 -3 205 -9 q 121 10 148 2 q 68 31 95 18 l 68 201 q 128 176 96 187 q 191 156 159 164 q 251 142 222 147 q 306 138 281 138 q 353 143 334 138 q 386 157 373 148 q 404 179 398 166 q 410 205 410 191 q 405 231 410 220 q 385 255 401 242 q 339 283 370 267 q 258 322 309 299 q 173 367 209 345 q 113 416 136 389 q 78 478 90 443 q 66 561 66 513 q 87 653 66 614 q 144 720 107 693 q 234 759 182 746 q 351 772 287 772 q 480 757 419 772 q 606 710 541 741 l 543 564 q 445 604 492 588 q 351 619 398 619 q 291 604 309 619 q 272 564 272 589 q 277 539 272 550 q 296 518 281 529 q 336 493 310 507 q 403 461 361 480 q 490 419 451 440 q 556 372 528 399 q 599 311 584 346 q 614 225 614 275 z "},"t":{"ha":575,"x_min":32,"x_max":530,"o":"m 416 151 q 474 158 447 151 q 530 175 502 165 l 530 21 q 458 -4 501 6 q 364 -14 415 -14 q 272 -2 315 -14 q 198 38 229 9 q 149 116 167 67 q 131 237 131 164 l 131 603 l 32 603 l 32 690 l 146 760 l 205 920 l 338 920 l 338 758 l 522 758 l 522 603 l 338 603 l 338 237 q 359 172 338 193 q 416 151 381 151 z "},"u":{"ha":871,"x_min":104,"x_max":762,"o":"m 604 0 l 576 97 l 566 97 q 525 47 549 68 q 474 13 502 26 q 415 -7 446 -1 q 351 -14 384 -14 q 250 2 296 -14 q 172 52 205 18 q 122 138 140 86 q 104 264 104 191 l 104 758 l 311 758 l 311 315 q 336 192 311 233 q 415 151 361 151 q 483 168 456 151 q 526 216 510 184 q 549 294 542 248 q 555 401 555 341 l 555 758 l 762 758 l 762 0 l 604 0 z "},"v":{"ha":749,"x_min":0,"x_max":749,"o":"m 268 0 l 0 758 l 216 758 l 342 326 q 362 246 353 288 q 372 171 370 204 l 376 171 q 387 247 378 207 q 407 326 395 288 l 532 758 l 749 758 l 481 0 l 268 0 z "},"w":{"ha":1120,"x_min":0,"x_max":1120,"o":"m 688 0 l 629 265 q 622 298 627 277 q 612 346 618 319 q 601 403 607 373 q 589 463 595 433 q 559 614 576 533 l 555 614 q 527 463 540 533 q 516 402 522 433 q 505 345 510 372 q 495 296 499 318 q 488 262 490 275 l 427 0 l 204 0 l 0 758 l 205 758 l 282 422 q 295 359 288 396 q 307 284 301 322 q 317 213 313 247 q 325 160 322 180 l 329 160 q 332 194 330 173 q 338 238 334 214 q 345 287 341 262 q 352 333 349 311 q 359 371 356 355 q 364 395 362 388 l 447 758 l 675 758 l 754 395 q 763 349 758 380 q 774 282 768 317 q 784 213 780 246 q 789 160 788 179 l 793 160 q 800 210 795 177 q 811 282 805 243 q 824 358 817 320 q 838 422 831 396 l 917 758 l 1120 758 l 913 0 l 688 0 z "},"x":{"ha":761,"x_min":7,"x_max":754,"o":"m 264 387 l 20 758 l 254 758 l 380 530 l 509 758 l 743 758 l 496 387 l 754 0 l 519 0 l 380 245 l 241 0 l 7 0 l 264 387 z "},"y":{"ha":749,"x_min":0,"x_max":749,"o":"m 0 758 l 227 758 l 349 332 q 365 256 359 296 q 371 184 370 216 l 375 184 q 379 219 376 200 q 385 258 381 238 q 392 297 388 277 q 401 332 397 316 l 521 758 l 749 758 l 449 -97 q 334 -275 407 -217 q 153 -334 262 -334 q 92 -330 117 -334 q 47 -322 66 -326 l 47 -158 q 83 -164 62 -161 q 129 -167 105 -167 q 184 -158 161 -167 q 224 -133 208 -149 q 253 -95 241 -117 q 273 -45 264 -73 l 286 -7 l 0 758 z "},"z":{"ha":635,"x_min":37,"x_max":595,"o":"m 595 0 l 37 0 l 37 122 l 347 600 l 58 600 l 58 758 l 582 758 l 582 624 l 282 158 l 595 158 l 595 0 z "},"{":{"ha":505,"x_min":21,"x_max":492,"o":"m 195 183 q 150 277 195 249 q 21 304 106 304 l 21 467 q 96 473 63 467 q 151 494 129 479 q 185 532 174 509 q 195 587 196 555 l 195 803 q 208 889 195 853 q 254 947 220 924 q 345 981 288 970 q 492 991 403 991 l 492 839 q 443 834 465 838 q 405 820 420 830 q 382 791 390 809 q 374 743 374 772 l 374 541 q 215 390 370 414 l 215 382 q 334 333 293 370 q 374 232 376 296 l 374 29 q 382 -18 374 0 q 405 -47 390 -37 q 443 -62 420 -58 q 492 -66 465 -66 l 492 -220 q 345 -209 403 -220 q 254 -175 288 -198 q 208 -117 220 -153 q 195 -31 195 -81 l 195 183 z "},"|":{"ha":765,"x_min":309,"x_max":457,"o":"m 309 1051 l 457 1051 l 457 -315 l 309 -315 l 309 1051 z "},"}":{"ha":505,"x_min":21,"x_max":492,"o":"m 318 -31 q 305 -117 318 -81 q 259 -175 292 -153 q 168 -209 225 -198 q 21 -220 110 -220 l 21 -66 q 70 -62 48 -66 q 107 -47 92 -58 q 131 -18 122 -37 q 139 29 139 0 l 139 232 q 178 333 137 296 q 297 382 220 370 l 297 390 q 139 541 143 414 l 139 743 q 131 791 139 772 q 107 820 122 809 q 70 834 92 830 q 21 839 48 838 l 21 991 q 168 981 110 991 q 259 947 225 970 q 305 889 292 924 q 318 803 318 853 l 318 587 q 328 532 317 555 q 361 494 339 509 q 417 473 384 479 q 492 467 450 467 l 492 304 q 362 277 407 304 q 318 183 318 249 l 318 -31 z "},"~":{"ha":765,"x_min":60,"x_max":705,"o":"m 358 418 q 314 436 333 429 q 278 448 294 444 q 248 454 262 452 q 218 456 234 456 q 178 449 199 456 q 136 432 157 443 q 97 406 116 420 q 60 374 77 391 l 60 530 q 137 586 94 567 q 233 604 180 604 q 271 603 254 604 q 308 596 288 601 q 351 583 327 591 q 407 561 374 574 q 452 543 433 550 q 488 531 471 536 q 518 525 504 527 q 547 524 532 524 q 588 530 567 524 q 629 547 609 536 q 669 573 650 558 q 705 606 688 589 l 705 449 q 532 375 637 375 q 494 377 511 375 q 457 383 477 378 q 414 396 438 387 q 358 418 391 404 z "}," ":{"ha":361,"x_min":0,"x_max":0,"o":""},"¡":{"ha":397,"x_min":79,"x_max":317,"o":"m 114 411 l 279 411 l 314 -250 l 79 -250 l 114 411 m 317 643 q 308 589 317 611 q 282 553 298 567 q 244 534 266 540 q 197 528 222 528 q 152 534 174 528 q 115 553 131 540 q 89 589 98 567 q 79 643 79 611 q 89 695 79 673 q 115 731 98 718 q 152 752 131 745 q 197 758 174 758 q 244 752 222 758 q 282 731 266 745 q 308 695 298 718 q 317 643 317 673 z "},"¢":{"ha":765,"x_min":97,"x_max":673,"o":"m 368 -14 l 368 126 q 256 160 306 135 q 170 231 205 186 q 116 343 135 276 q 97 504 97 411 q 116 668 97 600 q 171 783 135 737 q 256 855 206 829 q 368 889 307 880 l 368 1006 l 489 1006 l 489 895 q 541 890 515 894 q 590 881 566 886 q 636 869 614 876 q 673 854 657 862 l 615 701 q 583 714 601 708 q 546 726 565 721 q 508 734 527 731 q 473 737 490 737 q 397 724 429 737 q 346 682 366 710 q 317 611 326 654 q 309 509 309 568 q 347 339 309 393 q 473 285 386 285 q 573 297 525 285 q 654 326 621 310 l 654 164 q 578 134 620 144 q 489 122 536 123 l 489 -14 l 368 -14 z "},"£":{"ha":765,"x_min":56,"x_max":739,"o":"m 461 1006 q 596 989 536 1006 q 711 950 657 973 l 648 794 q 561 826 600 814 q 478 838 521 838 q 407 811 433 838 q 382 721 382 785 l 382 590 l 608 590 l 608 441 l 382 441 l 382 345 q 373 280 382 307 q 349 233 363 252 q 316 199 334 213 q 279 176 298 186 l 739 176 l 739 0 l 56 0 l 56 168 q 107 195 84 180 q 145 229 130 209 q 170 276 161 248 q 178 343 178 304 l 178 441 l 57 441 l 57 590 l 178 590 l 178 722 q 199 853 178 799 q 258 941 220 907 q 348 990 296 975 q 461 1006 399 1006 z "},"¤":{"ha":765,"x_min":62,"x_max":703,"o":"m 114 490 q 123 561 114 527 q 150 624 133 594 l 62 710 l 163 810 l 249 724 q 313 750 278 741 q 382 760 347 760 q 451 750 418 760 q 515 722 484 741 l 602 810 l 703 713 l 615 625 q 642 562 632 597 q 652 490 652 527 q 642 419 652 452 q 615 355 633 386 l 700 271 l 602 172 l 515 257 q 452 232 486 241 q 382 222 418 222 q 310 231 344 222 q 248 257 277 239 l 163 174 l 64 272 l 150 357 q 114 490 114 418 m 254 490 q 264 440 254 464 q 292 400 275 417 q 332 373 309 382 q 382 363 355 363 q 433 373 409 363 q 474 400 456 382 q 503 440 492 417 q 513 490 513 464 q 503 541 513 517 q 474 582 492 564 q 433 609 456 599 q 382 619 409 619 q 332 609 355 619 q 292 582 309 599 q 264 541 275 564 q 254 490 254 517 z "},"¥":{"ha":765,"x_min":5,"x_max":761,"o":"m 383 583 l 549 991 l 761 991 l 515 485 l 647 485 l 647 364 l 481 364 l 481 271 l 647 271 l 647 150 l 481 150 l 481 0 l 286 0 l 286 150 l 118 150 l 118 271 l 286 271 l 286 364 l 118 364 l 118 485 l 248 485 l 5 991 l 220 991 l 383 583 z "},"¦":{"ha":765,"x_min":309,"x_max":457,"o":"m 309 1051 l 457 1051 l 457 498 l 309 498 l 309 1051 m 309 237 l 457 237 l 457 -315 l 309 -315 l 309 237 z "},"§":{"ha":675,"x_min":72,"x_max":607,"o":"m 82 546 q 89 601 82 576 q 109 648 96 627 q 138 686 121 669 q 172 715 154 703 q 106 783 130 743 q 82 873 82 823 q 102 954 82 918 q 158 1016 121 990 q 244 1056 194 1042 q 357 1069 295 1069 q 486 1054 426 1069 q 603 1013 545 1038 l 547 884 q 453 923 501 905 q 353 940 406 940 q 273 924 298 940 q 248 876 248 909 q 256 845 248 859 q 281 818 264 831 q 327 791 299 804 q 392 762 354 778 q 480 720 440 743 q 548 669 519 697 q 591 607 576 641 q 607 530 607 572 q 584 421 607 463 q 522 354 560 379 q 586 291 564 327 q 607 205 607 256 q 586 115 607 155 q 526 46 565 75 q 432 2 488 18 q 309 -14 377 -14 q 177 0 234 -14 q 72 40 119 14 l 72 180 q 129 155 98 167 q 191 134 159 143 q 252 119 222 125 q 309 114 282 114 q 372 120 347 114 q 412 137 397 126 q 434 162 427 148 q 440 193 440 176 q 435 223 440 210 q 415 250 430 237 q 372 277 399 262 q 300 310 345 291 q 208 353 248 332 q 139 402 167 375 q 97 465 111 430 q 82 546 82 499 m 233 561 q 272 485 233 518 q 390 418 310 452 l 400 414 q 420 431 410 421 q 437 453 429 441 q 449 480 444 465 q 453 513 453 495 q 446 553 453 534 q 421 588 439 571 q 373 622 404 606 q 294 656 342 639 q 271 642 282 651 q 252 621 260 633 q 238 593 243 608 q 233 561 233 578 z "},"¨":{"ha":802,"x_min":168,"x_max":633,"o":"m 168 953 q 176 994 168 977 q 196 1022 183 1011 q 225 1039 208 1034 q 262 1044 243 1044 q 299 1039 282 1044 q 330 1022 317 1034 q 350 994 342 1011 q 358 953 358 977 q 350 913 358 930 q 330 885 342 896 q 299 868 317 873 q 262 863 282 863 q 225 868 243 863 q 196 885 208 873 q 176 913 183 896 q 168 953 168 930 m 441 953 q 449 994 441 977 q 469 1022 456 1011 q 500 1039 482 1034 q 538 1044 517 1044 q 574 1039 557 1044 q 605 1022 591 1034 q 626 994 618 1011 q 633 953 633 977 q 626 913 633 930 q 605 885 618 896 q 574 868 591 873 q 538 863 557 863 q 469 885 497 863 q 441 953 441 907 z "},"©":{"ha":1156,"x_min":68,"x_max":1088,"o":"m 607 685 q 505 635 541 685 q 469 496 469 585 q 502 355 469 404 q 607 306 534 306 q 690 316 646 306 q 774 346 735 326 l 774 216 q 695 188 735 198 q 603 178 655 178 q 476 201 530 178 q 386 266 422 224 q 331 367 349 308 q 313 497 313 425 q 330 625 313 567 q 384 725 348 683 q 473 789 419 766 q 597 812 526 812 q 706 798 654 812 q 804 760 758 783 l 754 646 q 607 685 677 685 m 68 496 q 86 631 68 566 q 137 753 104 696 q 217 857 170 810 q 320 936 264 903 q 442 987 377 969 q 578 1006 507 1006 q 713 987 648 1006 q 835 936 779 969 q 939 857 892 903 q 1018 753 985 810 q 1069 631 1051 696 q 1088 496 1088 566 q 1069 360 1088 425 q 1018 238 1051 295 q 939 135 985 182 q 835 56 892 89 q 713 4 779 22 q 578 -14 648 -14 q 442 4 507 -14 q 320 56 377 22 q 217 135 264 89 q 137 238 170 182 q 86 360 104 295 q 68 496 68 425 m 164 496 q 197 334 164 410 q 285 203 229 259 q 416 115 341 147 q 578 82 492 82 q 739 115 664 82 q 870 203 814 147 q 959 334 926 259 q 991 496 991 410 q 959 657 991 582 q 870 788 926 732 q 739 877 814 844 q 578 909 664 909 q 416 877 492 909 q 285 788 341 844 q 197 657 229 732 q 164 496 164 582 z "},"ª":{"ha":504,"x_min":32,"x_max":444,"o":"m 353 518 l 332 593 q 266 532 304 553 q 182 510 228 510 q 120 519 148 510 q 73 547 93 528 q 43 594 54 566 q 32 661 32 623 q 46 730 32 702 q 89 776 61 758 q 156 803 116 794 q 248 815 197 812 l 309 818 q 289 879 309 861 q 232 897 269 897 q 172 886 205 897 q 103 856 138 874 l 58 947 q 151 986 100 969 q 262 1003 201 1003 q 343 990 309 1003 q 399 952 377 977 q 433 894 422 928 q 444 818 444 860 l 444 518 l 353 518 m 253 733 q 211 724 227 731 q 186 708 195 718 q 174 686 177 698 q 171 663 171 675 q 184 625 171 637 q 215 612 197 612 q 254 620 237 612 q 283 641 271 627 q 302 672 296 654 q 309 713 309 691 l 309 737 l 253 733 z "},"«":{"ha":812,"x_min":56,"x_max":757,"o":"m 56 389 l 265 697 l 414 616 l 267 380 l 414 144 l 265 64 l 56 371 l 56 389 m 399 389 l 608 697 l 757 616 l 610 380 l 757 144 l 608 64 l 399 371 l 399 389 z "},"¬":{"ha":765,"x_min":60,"x_max":705,"o":"m 705 168 l 557 168 l 557 415 l 60 415 l 60 564 l 705 564 l 705 168 z "},"­":{"ha":447,"x_min":41,"x_max":406,"o":"m 41 288 l 41 457 l 406 457 l 406 288 l 41 288 z "},"®":{"ha":1156,"x_min":68,"x_max":1088,"o":"m 785 614 q 759 513 785 550 q 688 456 732 475 l 848 184 l 676 184 l 555 414 l 524 414 l 524 184 l 368 184 l 368 806 l 547 806 q 728 758 671 806 q 785 614 785 711 m 524 528 l 545 528 q 609 547 589 528 q 628 611 628 566 q 623 650 628 635 q 607 675 618 666 q 581 688 597 684 q 543 692 565 692 l 524 692 l 524 528 m 68 496 q 86 631 68 566 q 137 753 104 696 q 217 857 170 810 q 320 936 264 903 q 442 987 377 969 q 578 1006 507 1006 q 713 987 648 1006 q 835 936 779 969 q 939 857 892 903 q 1018 753 985 810 q 1069 631 1051 696 q 1088 496 1088 566 q 1069 360 1088 425 q 1018 238 1051 295 q 939 135 985 182 q 835 56 892 89 q 713 4 779 22 q 578 -14 648 -14 q 442 4 507 -14 q 320 56 377 22 q 217 135 264 89 q 137 238 170 182 q 86 360 104 295 q 68 496 68 425 m 164 496 q 197 334 164 410 q 285 203 229 259 q 416 115 341 147 q 578 82 492 82 q 739 115 664 82 q 870 203 814 147 q 959 334 926 259 q 991 496 991 410 q 959 657 991 582 q 870 788 926 732 q 739 877 814 844 q 578 909 664 909 q 416 877 492 909 q 285 788 341 844 q 197 657 229 732 q 164 496 164 582 z "},"¯":{"ha":694,"x_min":-4,"x_max":699,"o":"m 699 1055 l -4 1055 l -4 1192 l 699 1192 l 699 1055 z "},"°":{"ha":595,"x_min":62,"x_max":532,"o":"m 62 771 q 81 862 62 819 q 131 937 99 905 q 205 987 163 968 q 297 1006 248 1006 q 389 987 346 1006 q 464 937 432 968 q 513 862 495 905 q 532 771 532 819 q 513 680 532 722 q 464 605 495 637 q 389 556 432 574 q 297 538 346 538 q 205 556 248 538 q 131 605 163 574 q 81 680 99 637 q 62 771 62 722 m 192 771 q 200 731 192 750 q 222 698 208 712 q 256 675 237 684 q 297 667 275 667 q 338 675 319 667 q 372 698 357 684 q 394 731 386 712 q 403 771 403 750 q 394 812 403 793 q 372 846 386 831 q 338 869 357 861 q 297 878 319 878 q 256 869 275 878 q 222 846 237 861 q 200 812 208 831 q 192 771 192 793 z "},"±":{"ha":765,"x_min":60,"x_max":705,"o":"m 309 457 l 60 457 l 60 606 l 309 606 l 309 856 l 457 856 l 457 606 l 705 606 l 705 457 l 457 457 l 457 210 l 309 210 l 309 457 m 60 0 l 60 149 l 705 149 l 705 0 l 60 0 z "},"²":{"ha":526,"x_min":32,"x_max":476,"o":"m 476 397 l 37 397 l 37 511 l 189 660 q 241 713 220 690 q 274 753 262 735 q 292 788 287 772 q 297 822 297 804 q 281 861 297 848 q 237 875 264 875 q 181 861 210 875 q 115 815 151 847 l 32 918 q 131 981 76 957 q 260 1006 186 1006 q 341 995 304 1006 q 405 962 378 983 q 445 909 431 941 q 460 836 460 878 q 451 778 460 805 q 425 722 443 750 q 378 664 406 694 q 309 597 349 634 l 237 533 l 476 533 l 476 397 z "},"³":{"ha":526,"x_min":40,"x_max":471,"o":"m 452 847 q 424 766 452 800 q 336 713 397 732 l 336 704 q 396 683 371 697 q 438 650 421 669 q 463 609 454 631 q 471 562 471 587 q 411 433 471 480 q 225 386 351 386 q 129 398 174 386 q 40 433 84 410 l 40 562 q 130 518 85 535 q 224 501 174 501 q 297 519 274 501 q 321 574 321 538 q 315 601 321 588 q 297 624 310 614 q 262 640 284 633 q 208 646 241 646 l 132 646 l 132 754 l 195 754 q 252 760 230 754 q 286 777 273 766 q 302 801 298 787 q 306 828 306 814 q 289 871 306 854 q 237 888 272 888 q 177 875 205 888 q 110 835 149 862 l 41 930 q 135 983 83 962 q 256 1004 186 1004 q 334 993 298 1004 q 396 962 370 982 q 437 912 422 941 q 452 847 452 883 z "},"´":{"ha":802,"x_min":225,"x_max":575,"o":"m 225 842 l 225 860 q 256 905 239 880 q 288 959 272 931 q 318 1014 304 986 q 343 1064 332 1041 l 575 1064 l 575 1050 q 553 1021 568 1038 q 521 985 539 1004 q 481 946 503 966 q 439 907 460 926 q 398 871 418 888 q 363 842 378 854 l 225 842 z "},"µ":{"ha":875,"x_min":109,"x_max":766,"o":"m 315 315 q 341 192 315 233 q 421 151 366 151 q 487 168 460 151 q 530 216 513 184 q 553 294 546 248 q 559 401 559 341 l 559 758 l 766 758 l 766 0 l 608 0 l 579 102 l 571 102 q 512 15 547 44 q 425 -14 476 -14 q 358 2 389 -14 q 309 47 328 18 q 312 -10 310 19 q 314 -64 313 -35 q 315 -117 315 -92 l 315 -334 l 109 -334 l 109 758 l 315 758 l 315 315 z "},"¶":{"ha":909,"x_min":77,"x_max":791,"o":"m 791 -176 l 682 -176 l 682 920 l 570 920 l 570 -176 l 460 -176 l 460 379 q 361 367 418 367 q 244 384 296 367 q 154 441 191 401 q 97 547 117 481 q 77 707 77 612 q 99 873 77 806 q 161 981 121 940 q 258 1038 201 1021 q 382 1055 314 1055 l 791 1055 l 791 -176 z "},"·":{"ha":396,"x_min":79,"x_max":317,"o":"m 79 490 q 89 544 79 522 q 114 580 98 566 q 152 600 130 593 q 199 606 174 606 q 244 600 222 606 q 281 580 265 593 q 307 544 298 566 q 317 490 317 522 q 307 438 317 460 q 281 402 298 416 q 244 381 265 388 q 199 375 222 375 q 152 381 174 375 q 114 402 130 388 q 89 438 98 416 q 79 490 79 460 z "},"¸":{"ha":285,"x_min":-25,"x_max":283,"o":"m 283 -170 q 273 -239 283 -208 q 238 -290 262 -269 q 173 -322 214 -311 q 74 -334 133 -334 q 19 -330 43 -334 q -25 -319 -5 -326 l -25 -205 q -2 -211 -15 -208 q 23 -215 10 -213 q 49 -218 37 -217 q 72 -220 62 -220 q 106 -211 92 -220 q 121 -178 121 -201 q 96 -133 121 -153 q 8 -104 71 -114 l 61 0 l 192 0 l 174 -41 q 214 -60 195 -48 q 249 -87 234 -71 q 274 -124 264 -103 q 283 -170 283 -144 z "},"¹":{"ha":526,"x_min":62,"x_max":396,"o":"m 396 397 l 235 397 l 235 700 q 235 734 235 713 q 236 776 235 755 q 238 814 237 797 q 240 840 239 832 q 230 828 236 835 q 216 813 223 821 q 202 799 209 806 q 189 787 195 792 l 136 746 l 62 832 l 267 991 l 396 991 l 396 397 z "},"º":{"ha":511,"x_min":39,"x_max":472,"o":"m 472 757 q 457 652 472 698 q 413 575 441 606 q 345 527 385 543 q 254 510 304 510 q 168 527 208 510 q 99 575 128 543 q 55 652 71 606 q 39 757 39 698 q 54 862 39 816 q 97 939 69 907 q 166 987 125 970 q 257 1003 206 1003 q 342 987 303 1003 q 410 939 381 970 q 456 862 439 907 q 472 757 472 816 m 176 757 q 195 655 176 689 q 256 621 214 621 q 315 655 296 621 q 334 757 334 689 q 315 858 334 825 q 256 892 296 892 q 195 858 214 892 q 176 757 176 825 z "},"»":{"ha":812,"x_min":57,"x_max":758,"o":"m 758 371 l 549 64 l 400 144 l 547 380 l 400 616 l 549 697 l 758 389 l 758 371 m 415 371 l 205 64 l 57 144 l 204 380 l 57 616 l 205 697 l 415 389 l 415 371 z "},"¼":{"ha":1223,"x_min":31,"x_max":1141,"o":"m 929 991 l 379 0 l 217 0 l 767 991 l 929 991 m 365 397 l 203 397 l 203 700 q 204 734 203 713 q 205 776 204 755 q 207 814 206 797 q 209 840 208 832 q 198 828 205 835 q 185 813 192 821 q 171 799 178 806 q 158 787 163 792 l 105 746 l 31 832 l 235 991 l 365 991 l 365 397 m 1141 103 l 1056 103 l 1056 1 l 895 1 l 895 103 l 635 103 l 635 208 l 896 599 l 1056 599 l 1056 217 l 1141 217 l 1141 103 m 895 217 l 895 328 q 896 388 895 357 q 899 453 897 420 q 889 430 895 444 q 875 400 882 415 q 860 370 867 385 q 846 347 852 356 l 760 217 l 895 217 z "},"½":{"ha":1223,"x_min":31,"x_max":1164,"o":"m 929 991 l 379 0 l 217 0 l 767 991 l 929 991 m 365 397 l 203 397 l 203 700 q 204 734 203 713 q 205 776 204 755 q 207 814 206 797 q 209 840 208 832 q 198 828 205 835 q 185 813 192 821 q 171 799 178 806 q 158 787 163 792 l 105 746 l 31 832 l 235 991 l 365 991 l 365 397 m 1164 1 l 725 1 l 725 115 l 877 263 q 929 316 908 294 q 962 357 949 338 q 980 391 975 375 q 985 425 985 407 q 968 465 985 451 q 925 478 952 478 q 868 464 898 478 q 803 418 839 450 l 720 522 q 819 585 764 560 q 947 609 873 609 q 1029 598 992 609 q 1092 565 1066 587 q 1133 512 1118 544 q 1147 439 1147 481 q 1139 381 1147 408 q 1112 326 1131 353 q 1065 268 1094 298 q 996 201 1037 237 l 925 136 l 1164 136 l 1164 1 z "},"¾":{"ha":1223,"x_min":61,"x_max":1161,"o":"m 977 991 l 427 0 l 265 0 l 815 991 l 977 991 m 1161 103 l 1076 103 l 1076 1 l 915 1 l 915 103 l 655 103 l 655 208 l 916 599 l 1076 599 l 1076 217 l 1161 217 l 1161 103 m 915 217 l 915 328 q 916 388 915 357 q 919 453 917 420 q 909 430 916 444 q 895 400 903 415 q 880 370 888 385 q 867 347 873 356 l 781 217 l 915 217 m 473 847 q 445 766 473 800 q 357 713 418 732 l 357 704 q 417 683 392 697 q 459 650 442 669 q 484 609 475 631 q 492 562 492 587 q 432 433 492 480 q 246 386 372 386 q 150 398 195 386 q 61 433 105 410 l 61 562 q 151 518 106 535 q 245 501 195 501 q 318 519 295 501 q 342 574 342 538 q 336 601 342 588 q 318 624 331 614 q 283 640 305 633 q 229 646 262 646 l 153 646 l 153 754 l 216 754 q 273 760 251 754 q 307 777 294 766 q 323 801 319 787 q 327 828 327 814 q 310 871 327 854 q 258 888 293 888 q 198 875 227 888 q 131 835 170 862 l 62 930 q 156 983 104 962 q 277 1004 207 1004 q 355 993 319 1004 q 417 962 391 982 q 458 912 443 941 q 473 847 473 883 z "},"¿":{"ha":637,"x_min":45,"x_max":628,"o":"m 465 411 l 465 361 q 458 298 465 326 q 436 244 451 270 q 399 195 422 219 q 343 146 376 172 q 295 106 315 123 q 263 71 275 88 q 245 35 251 54 q 240 -9 240 16 q 267 -73 240 -48 q 346 -98 293 -98 q 447 -78 393 -98 q 558 -31 501 -58 l 628 -180 q 564 -213 599 -198 q 493 -240 530 -229 q 418 -258 456 -252 q 343 -265 380 -265 q 219 -249 274 -265 q 125 -200 163 -232 q 65 -123 86 -169 q 45 -20 45 -77 q 54 57 45 23 q 82 119 63 90 q 129 175 101 148 q 195 232 157 202 q 240 271 222 254 q 269 302 258 288 q 282 334 279 317 q 286 371 286 350 l 286 411 l 465 411 m 488 643 q 478 589 488 611 q 453 553 469 567 q 415 534 437 540 q 368 528 393 528 q 323 534 345 528 q 286 553 302 540 q 260 589 269 567 q 250 643 250 611 q 260 695 250 673 q 286 731 269 718 q 323 752 302 745 q 368 758 345 758 q 415 752 393 758 q 453 731 437 745 q 478 695 469 718 q 488 643 488 673 z "},"À":{"ha":903,"x_min":0,"x_max":903,"o":"m 690 0 l 623 236 l 281 236 l 212 0 l 0 0 l 322 996 l 579 996 l 903 0 l 690 0 m 574 412 l 510 629 q 498 669 506 642 q 480 731 490 697 q 463 798 471 764 q 452 856 455 832 q 445 821 449 841 q 434 778 440 800 q 422 732 429 755 q 411 688 416 709 q 401 652 406 668 q 395 629 397 637 l 332 412 l 574 412 m 429 1071 q 373 1118 406 1090 q 310 1176 341 1146 q 253 1233 279 1206 q 216 1279 227 1261 l 216 1293 l 448 1293 q 474 1243 459 1270 q 504 1188 488 1215 q 536 1135 519 1160 q 566 1089 552 1109 l 566 1071 l 429 1071 z "},"Á":{"ha":903,"x_min":0,"x_max":903,"o":"m 690 0 l 623 236 l 281 236 l 212 0 l 0 0 l 322 996 l 579 996 l 903 0 l 690 0 m 574 412 l 510 629 q 498 669 506 642 q 480 731 490 697 q 463 798 471 764 q 452 856 455 832 q 445 821 449 841 q 434 778 440 800 q 422 732 429 755 q 411 688 416 709 q 401 652 406 668 q 395 629 397 637 l 332 412 l 574 412 m 335 1071 l 335 1089 q 366 1135 349 1109 q 398 1188 382 1160 q 428 1243 414 1215 q 453 1293 442 1270 l 685 1293 l 685 1279 q 663 1250 677 1267 q 631 1215 649 1234 q 591 1176 612 1196 q 549 1137 570 1156 q 508 1101 528 1118 q 473 1071 488 1084 l 335 1071 z "},"Â":{"ha":903,"x_min":0,"x_max":903,"o":"m 690 0 l 623 236 l 281 236 l 212 0 l 0 0 l 322 996 l 579 996 l 903 0 l 690 0 m 574 412 l 510 629 q 498 669 506 642 q 480 731 490 697 q 463 798 471 764 q 452 856 455 832 q 445 821 449 841 q 434 778 440 800 q 422 732 429 755 q 411 688 416 709 q 401 652 406 668 q 395 629 397 637 l 332 412 l 574 412 m 596 1071 q 524 1123 562 1094 q 452 1190 487 1152 q 380 1123 415 1152 q 310 1071 345 1094 l 172 1071 l 172 1089 q 211 1135 190 1109 q 255 1188 233 1160 q 297 1243 277 1215 q 332 1293 317 1270 l 574 1293 q 608 1243 588 1270 q 651 1188 629 1215 q 695 1135 673 1160 q 734 1089 717 1109 l 734 1071 l 596 1071 z "},"Ã":{"ha":903,"x_min":0,"x_max":903,"o":"m 690 0 l 623 236 l 281 236 l 212 0 l 0 0 l 322 996 l 579 996 l 903 0 l 690 0 m 574 412 l 510 629 q 498 669 506 642 q 480 731 490 697 q 463 798 471 764 q 452 856 455 832 q 445 821 449 841 q 434 778 440 800 q 422 732 429 755 q 411 688 416 709 q 401 652 406 668 q 395 629 397 637 l 332 412 l 574 412 m 342 1142 q 308 1124 321 1142 q 288 1069 296 1106 l 186 1069 q 204 1163 191 1124 q 240 1228 218 1202 q 292 1266 262 1254 q 357 1279 321 1279 q 412 1268 385 1279 q 464 1244 438 1257 q 516 1220 490 1231 q 566 1208 541 1208 q 599 1226 587 1208 q 620 1280 611 1244 l 721 1280 q 703 1187 717 1227 q 667 1122 689 1148 q 615 1083 644 1096 q 550 1071 585 1071 q 496 1082 523 1071 q 443 1106 469 1093 q 392 1131 417 1120 q 342 1142 366 1142 z "},"Ä":{"ha":903,"x_min":0,"x_max":903,"o":"m 690 0 l 623 236 l 281 236 l 212 0 l 0 0 l 322 996 l 579 996 l 903 0 l 690 0 m 574 412 l 510 629 q 498 669 506 642 q 480 731 490 697 q 463 798 471 764 q 452 856 455 832 q 445 821 449 841 q 434 778 440 800 q 422 732 429 755 q 411 688 416 709 q 401 652 406 668 q 395 629 397 637 l 332 412 l 574 412 m 220 1182 q 227 1223 220 1206 q 247 1252 235 1240 q 277 1268 260 1263 q 314 1274 294 1274 q 351 1268 334 1274 q 381 1252 368 1263 q 402 1223 394 1240 q 410 1182 410 1206 q 402 1142 410 1159 q 381 1114 394 1125 q 351 1097 368 1103 q 314 1092 334 1092 q 277 1097 294 1092 q 247 1114 260 1103 q 227 1142 235 1125 q 220 1182 220 1159 m 493 1182 q 500 1223 493 1206 q 521 1252 508 1240 q 551 1268 534 1263 q 589 1274 569 1274 q 626 1268 608 1274 q 656 1252 643 1263 q 677 1223 669 1240 q 685 1182 685 1206 q 677 1142 685 1159 q 656 1114 669 1125 q 626 1097 643 1103 q 589 1092 608 1092 q 521 1114 549 1092 q 493 1182 493 1137 z "},"Å":{"ha":903,"x_min":0,"x_max":903,"o":"m 690 0 l 623 236 l 281 236 l 212 0 l 0 0 l 322 996 l 579 996 l 903 0 l 690 0 m 574 412 l 510 629 q 498 669 506 642 q 480 731 490 697 q 463 798 471 764 q 452 856 455 832 q 445 821 449 841 q 434 778 440 800 q 422 732 429 755 q 411 688 416 709 q 401 652 406 668 q 395 629 397 637 l 332 412 l 574 412 m 623 1063 q 609 995 623 1025 q 573 943 596 964 q 518 911 549 922 q 450 900 487 900 q 382 911 413 900 q 329 943 351 922 q 294 994 307 964 q 282 1061 282 1024 q 294 1128 282 1099 q 329 1179 307 1158 q 382 1211 351 1200 q 450 1222 413 1222 q 517 1211 486 1222 q 572 1179 549 1200 q 609 1129 595 1158 q 623 1063 623 1099 m 515 1061 q 497 1109 515 1092 q 450 1126 479 1126 q 404 1109 422 1126 q 385 1061 385 1092 q 401 1013 385 1031 q 450 996 418 996 q 497 1013 479 996 q 515 1061 515 1031 z "},"Æ":{"ha":1280,"x_min":0,"x_max":1198,"o":"m 1198 0 l 628 0 l 628 236 l 315 236 l 214 0 l 0 0 l 444 991 l 1198 991 l 1198 819 l 838 819 l 838 602 l 1174 602 l 1174 429 l 838 429 l 838 174 l 1198 174 l 1198 0 m 392 412 l 628 412 l 628 812 l 562 812 l 392 412 z "},"Ç":{"ha":885,"x_min":81,"x_max":836,"o":"m 546 831 q 439 807 486 831 q 361 740 393 784 q 313 634 330 696 q 297 493 297 571 q 312 352 297 414 q 356 248 326 290 q 434 183 387 205 q 546 161 481 161 q 667 175 606 161 q 799 214 728 189 l 799 37 q 734 14 766 24 q 669 -1 703 5 q 601 -11 636 -7 q 526 -14 566 -14 q 328 23 412 -14 q 189 126 243 60 q 107 286 134 193 q 81 494 81 380 q 111 701 81 607 q 201 863 142 795 q 347 968 260 930 q 546 1006 433 1006 q 694 987 620 1006 q 836 936 768 968 l 768 765 q 656 811 713 791 q 546 831 600 831 m 628 -170 q 617 -239 628 -208 q 583 -290 607 -269 q 518 -322 558 -311 q 418 -334 477 -334 q 363 -330 388 -334 q 319 -319 339 -326 l 319 -205 q 342 -211 330 -208 q 368 -215 355 -213 q 394 -218 381 -217 q 416 -220 406 -220 q 451 -211 436 -220 q 465 -178 465 -201 q 440 -133 465 -153 q 353 -104 415 -114 l 406 0 l 536 0 l 518 -41 q 559 -60 539 -48 q 594 -87 578 -71 q 618 -124 609 -103 q 628 -170 628 -144 z "},"È":{"ha":778,"x_min":125,"x_max":696,"o":"m 696 0 l 125 0 l 125 991 l 696 991 l 696 819 l 335 819 l 335 602 l 671 602 l 671 429 l 335 429 l 335 174 l 696 174 l 696 0 m 388 1071 q 333 1118 365 1090 q 269 1176 300 1146 q 212 1233 238 1206 q 176 1279 186 1261 l 176 1293 l 408 1293 q 433 1243 418 1270 q 463 1188 448 1215 q 495 1135 479 1160 q 526 1089 511 1109 l 526 1071 l 388 1071 z "},"É":{"ha":778,"x_min":125,"x_max":696,"o":"m 696 0 l 125 0 l 125 991 l 696 991 l 696 819 l 335 819 l 335 602 l 671 602 l 671 429 l 335 429 l 335 174 l 696 174 l 696 0 m 288 1071 l 288 1089 q 318 1135 302 1109 q 350 1188 334 1160 q 380 1243 366 1215 q 406 1293 395 1270 l 637 1293 l 637 1279 q 616 1250 630 1267 q 583 1215 602 1234 q 544 1176 565 1196 q 502 1137 523 1156 q 460 1101 480 1118 q 425 1071 441 1084 l 288 1071 z "},"Ê":{"ha":778,"x_min":125,"x_max":702,"o":"m 696 0 l 125 0 l 125 991 l 696 991 l 696 819 l 335 819 l 335 602 l 671 602 l 671 429 l 335 429 l 335 174 l 696 174 l 696 0 m 564 1071 q 492 1123 530 1094 q 420 1190 455 1152 q 348 1123 383 1152 q 278 1071 313 1094 l 140 1071 l 140 1089 q 179 1135 158 1109 q 223 1188 201 1160 q 265 1243 245 1215 q 300 1293 286 1270 l 542 1293 q 576 1243 556 1270 q 619 1188 597 1215 q 663 1135 641 1160 q 702 1089 685 1109 l 702 1071 l 564 1071 z "},"Ë":{"ha":778,"x_min":125,"x_max":696,"o":"m 696 0 l 125 0 l 125 991 l 696 991 l 696 819 l 335 819 l 335 602 l 671 602 l 671 429 l 335 429 l 335 174 l 696 174 l 696 0 m 185 1182 q 193 1223 185 1206 q 213 1252 200 1240 q 242 1268 225 1263 q 279 1274 260 1274 q 316 1268 299 1274 q 347 1252 334 1263 q 367 1223 359 1240 q 375 1182 375 1206 q 367 1142 375 1159 q 347 1114 359 1125 q 316 1097 334 1103 q 279 1092 299 1092 q 242 1097 260 1092 q 213 1114 225 1103 q 193 1142 200 1125 q 185 1182 185 1159 m 458 1182 q 466 1223 458 1206 q 486 1252 473 1240 q 517 1268 499 1263 q 555 1274 534 1274 q 591 1268 574 1274 q 622 1252 608 1263 q 643 1223 635 1240 q 650 1182 650 1206 q 643 1142 650 1159 q 622 1114 635 1125 q 591 1097 608 1103 q 555 1092 574 1092 q 486 1114 514 1092 q 458 1182 458 1137 z "},"Ì":{"ha":541,"x_min":28,"x_max":496,"o":"m 496 0 l 45 0 l 45 119 l 165 175 l 165 817 l 45 872 l 45 991 l 496 991 l 496 872 l 375 817 l 375 175 l 496 119 l 496 0 m 241 1071 q 185 1118 218 1090 q 122 1176 153 1146 q 65 1233 91 1206 q 28 1279 39 1261 l 28 1293 l 260 1293 q 286 1243 271 1270 q 316 1188 300 1215 q 348 1135 332 1160 q 378 1089 364 1109 l 378 1071 l 241 1071 z "},"Í":{"ha":541,"x_min":45,"x_max":511,"o":"m 496 0 l 45 0 l 45 119 l 165 175 l 165 817 l 45 872 l 45 991 l 496 991 l 496 872 l 375 817 l 375 175 l 496 119 l 496 0 m 161 1071 l 161 1089 q 191 1135 175 1109 q 223 1188 208 1160 q 254 1243 239 1215 q 279 1293 268 1270 l 511 1293 l 511 1279 q 489 1250 503 1267 q 456 1215 475 1234 q 417 1176 438 1196 q 375 1137 396 1156 q 334 1101 353 1118 q 298 1071 314 1084 l 161 1071 z "},"Î":{"ha":541,"x_min":-11,"x_max":551,"o":"m 496 0 l 45 0 l 45 119 l 165 175 l 165 817 l 45 872 l 45 991 l 496 991 l 496 872 l 375 817 l 375 175 l 496 119 l 496 0 m 413 1071 q 341 1123 378 1094 q 269 1190 304 1152 q 197 1123 232 1152 q 127 1071 161 1094 l -11 1071 l -11 1089 q 28 1135 7 1109 q 72 1188 50 1160 q 114 1243 94 1215 q 149 1293 134 1270 l 391 1293 q 425 1243 405 1270 q 468 1188 446 1215 q 512 1135 490 1160 q 551 1089 534 1109 l 551 1071 l 413 1071 z "},"Ï":{"ha":541,"x_min":37,"x_max":502,"o":"m 496 0 l 45 0 l 45 119 l 165 175 l 165 817 l 45 872 l 45 991 l 496 991 l 496 872 l 375 817 l 375 175 l 496 119 l 496 0 m 37 1182 q 44 1223 37 1206 q 64 1252 52 1240 q 94 1268 77 1263 q 131 1274 111 1274 q 168 1268 151 1274 q 198 1252 185 1263 q 219 1223 211 1240 q 227 1182 227 1206 q 219 1142 227 1159 q 198 1114 211 1125 q 168 1097 185 1103 q 131 1092 151 1092 q 94 1097 111 1092 q 64 1114 77 1103 q 44 1142 52 1125 q 37 1182 37 1159 m 310 1182 q 317 1223 310 1206 q 338 1252 325 1240 q 368 1268 351 1263 q 406 1274 386 1274 q 443 1268 425 1274 q 473 1252 460 1263 q 494 1223 486 1240 q 502 1182 502 1206 q 494 1142 502 1159 q 473 1114 486 1125 q 443 1097 460 1103 q 406 1092 425 1092 q 338 1114 366 1092 q 310 1182 310 1137 z "},"Ð":{"ha":972,"x_min":32,"x_max":892,"o":"m 32 576 l 125 576 l 125 991 l 415 991 q 612 960 524 991 q 762 868 700 929 q 858 715 825 806 q 892 505 892 625 q 858 285 892 380 q 759 127 823 191 q 600 32 694 64 q 386 0 506 0 l 125 0 l 125 404 l 32 404 l 32 576 m 679 500 q 662 643 679 583 q 614 742 646 703 q 537 800 583 781 q 432 819 491 819 l 335 819 l 335 576 l 496 576 l 496 404 l 335 404 l 335 174 l 412 174 q 612 255 545 174 q 679 500 679 336 z "},"Ñ":{"ha":1088,"x_min":125,"x_max":962,"o":"m 962 0 l 696 0 l 306 750 l 300 750 q 307 646 304 698 q 311 554 309 602 q 313 467 313 505 l 313 0 l 125 0 l 125 991 l 390 991 l 779 249 l 783 249 q 779 351 781 300 q 777 395 778 372 q 775 440 776 418 q 774 484 774 463 q 774 522 774 505 l 774 991 l 962 991 l 962 0 m 422 1142 q 389 1124 401 1142 q 368 1069 376 1106 l 267 1069 q 285 1163 271 1124 q 320 1228 298 1202 q 372 1266 342 1254 q 438 1279 402 1279 q 492 1268 466 1279 q 545 1244 519 1257 q 596 1220 571 1231 q 646 1208 622 1208 q 680 1226 667 1208 q 701 1280 692 1244 l 802 1280 q 784 1187 798 1227 q 747 1122 770 1148 q 695 1083 725 1096 q 631 1071 666 1071 q 576 1082 604 1071 q 524 1106 549 1093 q 472 1131 498 1120 q 422 1142 447 1142 z "},"Ò":{"ha":1050,"x_min":81,"x_max":970,"o":"m 970 497 q 943 288 970 382 q 861 127 916 194 q 723 23 806 60 q 525 -14 639 -14 q 327 23 411 -14 q 189 127 243 60 q 107 289 134 194 q 81 498 81 383 q 107 708 81 614 q 189 868 134 802 q 328 971 244 935 q 526 1007 412 1007 q 724 971 640 1007 q 862 868 807 935 q 943 707 916 801 q 970 497 970 613 m 297 497 q 311 357 297 419 q 352 252 324 295 q 423 186 380 209 q 525 163 466 163 q 628 186 585 163 q 699 252 671 209 q 740 357 726 295 q 753 497 753 419 q 740 637 753 575 q 699 743 726 699 q 629 809 671 786 q 526 832 586 832 q 424 809 467 832 q 352 743 380 786 q 311 637 324 699 q 297 497 297 575 m 494 1071 q 439 1118 471 1090 q 376 1176 407 1146 q 319 1233 345 1206 q 282 1279 293 1261 l 282 1293 l 514 1293 q 539 1243 525 1270 q 570 1188 554 1215 q 602 1135 585 1160 q 632 1089 618 1109 l 632 1071 l 494 1071 z "},"Ó":{"ha":1050,"x_min":81,"x_max":970,"o":"m 970 497 q 943 288 970 382 q 861 127 916 194 q 723 23 806 60 q 525 -14 639 -14 q 327 23 411 -14 q 189 127 243 60 q 107 289 134 194 q 81 498 81 383 q 107 708 81 614 q 189 868 134 802 q 328 971 244 935 q 526 1007 412 1007 q 724 971 640 1007 q 862 868 807 935 q 943 707 916 801 q 970 497 970 613 m 297 497 q 311 357 297 419 q 352 252 324 295 q 423 186 380 209 q 525 163 466 163 q 628 186 585 163 q 699 252 671 209 q 740 357 726 295 q 753 497 753 419 q 740 637 753 575 q 699 743 726 699 q 629 809 671 786 q 526 832 586 832 q 424 809 467 832 q 352 743 380 786 q 311 637 324 699 q 297 497 297 575 m 400 1071 l 400 1089 q 431 1135 414 1109 q 463 1188 447 1160 q 493 1243 479 1215 q 518 1293 507 1270 l 750 1293 l 750 1279 q 728 1250 743 1267 q 696 1215 714 1234 q 656 1176 677 1196 q 614 1137 635 1156 q 573 1101 593 1118 q 538 1071 553 1084 l 400 1071 z "},"Ô":{"ha":1050,"x_min":81,"x_max":970,"o":"m 970 497 q 943 288 970 382 q 861 127 916 194 q 723 23 806 60 q 525 -14 639 -14 q 327 23 411 -14 q 189 127 243 60 q 107 289 134 194 q 81 498 81 383 q 107 708 81 614 q 189 868 134 802 q 328 971 244 935 q 526 1007 412 1007 q 724 971 640 1007 q 862 868 807 935 q 943 707 916 801 q 970 497 970 613 m 297 497 q 311 357 297 419 q 352 252 324 295 q 423 186 380 209 q 525 163 466 163 q 628 186 585 163 q 699 252 671 209 q 740 357 726 295 q 753 497 753 419 q 740 637 753 575 q 699 743 726 699 q 629 809 671 786 q 526 832 586 832 q 424 809 467 832 q 352 743 380 786 q 311 637 324 699 q 297 497 297 575 m 661 1071 q 589 1123 627 1094 q 517 1190 552 1152 q 445 1123 480 1152 q 375 1071 410 1094 l 237 1071 l 237 1089 q 276 1135 255 1109 q 320 1188 298 1160 q 362 1243 342 1215 q 397 1293 382 1270 l 639 1293 q 673 1243 653 1270 q 716 1188 694 1215 q 760 1135 738 1160 q 799 1089 782 1109 l 799 1071 l 661 1071 z "},"Õ":{"ha":1050,"x_min":81,"x_max":970,"o":"m 970 497 q 943 288 970 382 q 861 127 916 194 q 723 23 806 60 q 525 -14 639 -14 q 327 23 411 -14 q 189 127 243 60 q 107 289 134 194 q 81 498 81 383 q 107 708 81 614 q 189 868 134 802 q 328 971 244 935 q 526 1007 412 1007 q 724 971 640 1007 q 862 868 807 935 q 943 707 916 801 q 970 497 970 613 m 297 497 q 311 357 297 419 q 352 252 324 295 q 423 186 380 209 q 525 163 466 163 q 628 186 585 163 q 699 252 671 209 q 740 357 726 295 q 753 497 753 419 q 740 637 753 575 q 699 743 726 699 q 629 809 671 786 q 526 832 586 832 q 424 809 467 832 q 352 743 380 786 q 311 637 324 699 q 297 497 297 575 m 415 1142 q 381 1124 394 1142 q 361 1069 369 1106 l 260 1069 q 277 1163 264 1124 q 313 1228 291 1202 q 365 1266 335 1254 q 431 1279 395 1279 q 485 1268 458 1279 q 537 1244 511 1257 q 589 1220 564 1231 q 639 1208 614 1208 q 672 1226 660 1208 q 693 1280 684 1244 l 794 1280 q 776 1187 790 1227 q 740 1122 762 1148 q 688 1083 718 1096 q 623 1071 659 1071 q 569 1082 596 1071 q 516 1106 542 1093 q 465 1131 490 1120 q 415 1142 439 1142 z "},"Ö":{"ha":1050,"x_min":81,"x_max":970,"o":"m 970 497 q 943 288 970 382 q 861 127 916 194 q 723 23 806 60 q 525 -14 639 -14 q 327 23 411 -14 q 189 127 243 60 q 107 289 134 194 q 81 498 81 383 q 107 708 81 614 q 189 868 134 802 q 328 971 244 935 q 526 1007 412 1007 q 724 971 640 1007 q 862 868 807 935 q 943 707 916 801 q 970 497 970 613 m 297 497 q 311 357 297 419 q 352 252 324 295 q 423 186 380 209 q 525 163 466 163 q 628 186 585 163 q 699 252 671 209 q 740 357 726 295 q 753 497 753 419 q 740 637 753 575 q 699 743 726 699 q 629 809 671 786 q 526 832 586 832 q 424 809 467 832 q 352 743 380 786 q 311 637 324 699 q 297 497 297 575 m 290 1182 q 298 1223 290 1206 q 318 1252 305 1240 q 348 1268 330 1263 q 385 1274 365 1274 q 421 1268 404 1274 q 452 1252 439 1263 q 472 1223 465 1240 q 480 1182 480 1206 q 472 1142 480 1159 q 452 1114 465 1125 q 421 1097 439 1103 q 385 1092 404 1092 q 348 1097 365 1092 q 318 1114 330 1103 q 298 1142 305 1125 q 290 1182 290 1159 m 564 1182 q 571 1223 564 1206 q 591 1252 578 1240 q 622 1268 604 1263 q 660 1274 640 1274 q 696 1268 679 1274 q 727 1252 713 1263 q 748 1223 740 1240 q 755 1182 755 1206 q 748 1142 755 1159 q 727 1114 740 1125 q 696 1097 713 1103 q 660 1092 679 1092 q 591 1114 619 1092 q 564 1182 564 1137 z "},"×":{"ha":765,"x_min":74,"x_max":692,"o":"m 277 490 l 74 694 l 176 799 l 380 596 l 587 799 l 692 697 l 485 490 l 689 285 l 587 182 l 380 386 l 176 183 l 75 286 l 277 490 z "},"Ø":{"ha":1050,"x_min":81,"x_max":970,"o":"m 970 497 q 943 288 970 382 q 861 127 916 194 q 723 23 806 60 q 525 -14 639 -14 q 317 28 404 -14 l 268 -52 l 154 12 l 210 103 q 112 271 144 171 q 81 498 81 372 q 107 708 81 614 q 189 868 134 802 q 328 971 244 935 q 526 1007 412 1007 q 641 996 588 1007 q 737 964 693 985 l 785 1039 l 897 974 l 843 886 q 938 721 907 819 q 970 497 970 622 m 297 497 q 329 297 297 375 l 639 803 q 526 832 592 832 q 424 809 467 832 q 352 743 380 786 q 311 637 324 699 q 297 497 297 575 m 753 497 q 724 692 753 613 l 415 189 q 465 170 438 176 q 525 163 492 163 q 628 186 585 163 q 699 252 671 209 q 740 357 726 295 q 753 497 753 419 z "},"Ù":{"ha":994,"x_min":118,"x_max":876,"o":"m 876 991 l 876 350 q 853 206 876 273 q 782 91 829 140 q 662 14 734 42 q 493 -14 590 -14 q 331 13 401 -14 q 214 87 261 39 q 142 202 167 135 q 118 353 118 270 l 118 991 l 328 991 l 328 368 q 338 274 328 313 q 371 211 349 235 q 424 174 392 186 q 498 163 456 163 q 627 214 587 163 q 667 370 667 266 l 667 991 l 876 991 m 479 1071 q 424 1118 456 1090 q 360 1176 391 1146 q 303 1233 329 1206 q 267 1279 277 1261 l 267 1293 l 498 1293 q 524 1243 509 1270 q 554 1188 538 1215 q 586 1135 570 1160 q 616 1089 602 1109 l 616 1071 l 479 1071 z "},"Ú":{"ha":994,"x_min":118,"x_max":876,"o":"m 876 991 l 876 350 q 853 206 876 273 q 782 91 829 140 q 662 14 734 42 q 493 -14 590 -14 q 331 13 401 -14 q 214 87 261 39 q 142 202 167 135 q 118 353 118 270 l 118 991 l 328 991 l 328 368 q 338 274 328 313 q 371 211 349 235 q 424 174 392 186 q 498 163 456 163 q 627 214 587 163 q 667 370 667 266 l 667 991 l 876 991 m 387 1071 l 387 1089 q 417 1135 401 1109 q 449 1188 433 1160 q 479 1243 465 1215 q 505 1293 494 1270 l 736 1293 l 736 1279 q 715 1250 729 1267 q 682 1215 701 1234 q 643 1176 664 1196 q 601 1137 622 1156 q 559 1101 579 1118 q 524 1071 540 1084 l 387 1071 z "},"Û":{"ha":994,"x_min":118,"x_max":876,"o":"m 876 991 l 876 350 q 853 206 876 273 q 782 91 829 140 q 662 14 734 42 q 493 -14 590 -14 q 331 13 401 -14 q 214 87 261 39 q 142 202 167 135 q 118 353 118 270 l 118 991 l 328 991 l 328 368 q 338 274 328 313 q 371 211 349 235 q 424 174 392 186 q 498 163 456 163 q 627 214 587 163 q 667 370 667 266 l 667 991 l 876 991 m 639 1071 q 567 1123 604 1094 q 494 1190 530 1152 q 422 1123 458 1152 q 353 1071 387 1094 l 215 1071 l 215 1089 q 254 1135 233 1109 q 297 1188 275 1160 q 340 1243 319 1215 q 375 1293 360 1270 l 616 1293 q 651 1243 631 1270 q 693 1188 671 1215 q 738 1135 715 1160 q 777 1089 760 1109 l 777 1071 l 639 1071 z "},"Ü":{"ha":994,"x_min":118,"x_max":876,"o":"m 876 991 l 876 350 q 853 206 876 273 q 782 91 829 140 q 662 14 734 42 q 493 -14 590 -14 q 331 13 401 -14 q 214 87 261 39 q 142 202 167 135 q 118 353 118 270 l 118 991 l 328 991 l 328 368 q 338 274 328 313 q 371 211 349 235 q 424 174 392 186 q 498 163 456 163 q 627 214 587 163 q 667 370 667 266 l 667 991 l 876 991 m 267 1182 q 274 1223 267 1206 q 294 1252 281 1240 q 324 1268 307 1263 q 361 1274 341 1274 q 398 1268 380 1274 q 428 1252 415 1263 q 449 1223 441 1240 q 456 1182 456 1206 q 449 1142 456 1159 q 428 1114 441 1125 q 398 1097 415 1103 q 361 1092 380 1092 q 324 1097 341 1092 q 294 1114 307 1103 q 274 1142 281 1125 q 267 1182 267 1159 m 540 1182 q 547 1223 540 1206 q 568 1252 555 1240 q 598 1268 581 1263 q 636 1274 616 1274 q 672 1268 655 1274 q 703 1252 690 1263 q 724 1223 716 1240 q 732 1182 732 1206 q 724 1142 732 1159 q 703 1114 716 1125 q 672 1097 690 1103 q 636 1092 655 1092 q 568 1114 595 1092 q 540 1182 540 1137 z "},"Ý":{"ha":811,"x_min":0,"x_max":811,"o":"m 406 583 l 585 991 l 811 991 l 510 386 l 510 0 l 301 0 l 301 379 l 0 991 l 228 991 l 406 583 m 286 1071 l 286 1089 q 317 1135 300 1109 q 349 1188 333 1160 q 379 1243 365 1215 q 404 1293 393 1270 l 636 1293 l 636 1279 q 614 1250 629 1267 q 582 1215 600 1234 q 543 1176 564 1196 q 500 1137 522 1156 q 459 1101 479 1118 q 424 1071 439 1084 l 286 1071 z "},"Þ":{"ha":831,"x_min":125,"x_max":768,"o":"m 768 522 q 751 400 768 458 q 694 297 734 342 q 590 225 654 252 q 429 199 525 199 l 335 199 l 335 0 l 125 0 l 125 991 l 335 991 l 335 836 l 444 836 q 589 814 528 836 q 690 750 650 791 q 749 651 730 709 q 768 522 768 593 m 335 368 l 392 368 q 515 404 474 368 q 555 522 555 439 q 519 630 555 595 q 406 665 484 665 l 335 665 l 335 368 z "},"ß":{"ha":946,"x_min":109,"x_max":897,"o":"m 806 842 q 791 765 806 798 q 755 707 777 732 q 708 661 734 681 q 662 625 683 642 q 626 595 640 609 q 611 566 611 581 q 620 541 611 552 q 646 515 628 529 q 692 485 664 502 q 758 441 720 467 q 817 398 791 420 q 861 350 843 376 q 888 293 879 324 q 897 221 897 262 q 818 45 897 104 q 585 -14 739 -14 q 469 -4 518 -14 q 379 29 420 6 l 379 193 q 419 172 395 182 q 468 153 442 161 q 521 140 494 145 q 571 135 548 135 q 655 156 625 135 q 685 218 685 176 q 680 251 685 237 q 662 279 675 265 q 623 310 648 294 q 557 350 597 327 q 485 396 514 374 q 438 439 456 418 q 413 484 420 460 q 406 534 406 507 q 419 597 406 570 q 454 644 433 623 q 500 683 475 665 q 546 719 525 701 q 581 758 567 736 q 595 806 595 779 q 561 875 595 848 q 461 901 527 901 q 352 868 388 901 q 315 765 315 836 l 315 0 l 109 0 l 109 772 q 134 901 109 846 q 205 991 159 956 q 317 1045 252 1027 q 461 1063 382 1063 q 603 1048 539 1063 q 712 1005 667 1034 q 781 936 757 977 q 806 842 806 895 z "},"à":{"ha":798,"x_min":58,"x_max":693,"o":"m 549 0 l 509 103 l 503 103 q 458 51 480 73 q 409 14 435 28 q 350 -7 382 0 q 273 -14 317 -14 q 188 1 227 -14 q 120 45 149 16 q 75 120 91 75 q 58 227 58 165 q 136 405 58 347 q 367 468 213 462 l 488 472 l 488 529 q 460 598 488 576 q 385 621 433 621 q 289 606 336 621 q 196 568 243 592 l 129 705 q 255 755 186 737 q 400 774 324 774 q 617 707 542 774 q 693 505 693 641 l 693 0 l 549 0 m 488 351 l 419 349 q 349 338 378 347 q 303 312 321 328 q 278 274 286 296 q 271 225 271 252 q 294 158 271 178 q 354 138 317 138 q 407 148 382 138 q 449 177 431 157 q 477 224 467 196 q 488 289 488 252 l 488 351 m 374 842 q 319 889 351 861 q 256 947 287 917 q 199 1004 224 977 q 162 1050 173 1031 l 162 1064 l 394 1064 q 419 1014 405 1041 q 450 959 434 986 q 481 905 465 931 q 512 860 498 880 l 512 842 l 374 842 z "},"á":{"ha":798,"x_min":58,"x_max":693,"o":"m 549 0 l 509 103 l 503 103 q 458 51 480 73 q 409 14 435 28 q 350 -7 382 0 q 273 -14 317 -14 q 188 1 227 -14 q 120 45 149 16 q 75 120 91 75 q 58 227 58 165 q 136 405 58 347 q 367 468 213 462 l 488 472 l 488 529 q 460 598 488 576 q 385 621 433 621 q 289 606 336 621 q 196 568 243 592 l 129 705 q 255 755 186 737 q 400 774 324 774 q 617 707 542 774 q 693 505 693 641 l 693 0 l 549 0 m 488 351 l 419 349 q 349 338 378 347 q 303 312 321 328 q 278 274 286 296 q 271 225 271 252 q 294 158 271 178 q 354 138 317 138 q 407 148 382 138 q 449 177 431 157 q 477 224 467 196 q 488 289 488 252 l 488 351 m 299 842 l 299 860 q 330 905 313 880 q 362 959 346 931 q 392 1014 378 986 q 417 1064 406 1041 l 649 1064 l 649 1050 q 627 1021 642 1038 q 595 985 613 1004 q 555 946 576 966 q 513 907 534 926 q 472 871 492 888 q 437 842 452 854 l 299 842 z "},"â":{"ha":798,"x_min":58,"x_max":693,"o":"m 549 0 l 509 103 l 503 103 q 458 51 480 73 q 409 14 435 28 q 350 -7 382 0 q 273 -14 317 -14 q 188 1 227 -14 q 120 45 149 16 q 75 120 91 75 q 58 227 58 165 q 136 405 58 347 q 367 468 213 462 l 488 472 l 488 529 q 460 598 488 576 q 385 621 433 621 q 289 606 336 621 q 196 568 243 592 l 129 705 q 255 755 186 737 q 400 774 324 774 q 617 707 542 774 q 693 505 693 641 l 693 0 l 549 0 m 488 351 l 419 349 q 349 338 378 347 q 303 312 321 328 q 278 274 286 296 q 271 225 271 252 q 294 158 271 178 q 354 138 317 138 q 407 148 382 138 q 449 177 431 157 q 477 224 467 196 q 488 289 488 252 l 488 351 m 543 841 q 471 893 509 864 q 399 960 434 922 q 327 893 362 922 q 257 841 292 864 l 119 841 l 119 859 q 158 905 137 879 q 202 958 180 930 q 244 1013 224 985 q 279 1063 264 1040 l 521 1063 q 555 1013 535 1040 q 598 958 576 985 q 642 905 620 930 q 681 859 664 879 l 681 841 l 543 841 z "},"ã":{"ha":798,"x_min":58,"x_max":693,"o":"m 549 0 l 509 103 l 503 103 q 458 51 480 73 q 409 14 435 28 q 350 -7 382 0 q 273 -14 317 -14 q 188 1 227 -14 q 120 45 149 16 q 75 120 91 75 q 58 227 58 165 q 136 405 58 347 q 367 468 213 462 l 488 472 l 488 529 q 460 598 488 576 q 385 621 433 621 q 289 606 336 621 q 196 568 243 592 l 129 705 q 255 755 186 737 q 400 774 324 774 q 617 707 542 774 q 693 505 693 641 l 693 0 l 549 0 m 488 351 l 419 349 q 349 338 378 347 q 303 312 321 328 q 278 274 286 296 q 271 225 271 252 q 294 158 271 178 q 354 138 317 138 q 407 148 382 138 q 449 177 431 157 q 477 224 467 196 q 488 289 488 252 l 488 351 m 288 913 q 255 895 267 913 q 234 840 242 877 l 133 840 q 151 934 137 895 q 186 999 164 973 q 238 1037 208 1025 q 304 1050 268 1050 q 358 1039 332 1050 q 411 1015 385 1028 q 462 990 437 1002 q 512 979 488 979 q 545 997 533 979 q 566 1051 557 1015 l 667 1051 q 649 958 663 998 q 613 893 635 919 q 561 854 591 867 q 496 842 532 842 q 442 853 469 842 q 389 877 415 864 q 338 902 363 890 q 288 913 313 913 z "},"ä":{"ha":798,"x_min":58,"x_max":693,"o":"m 549 0 l 509 103 l 503 103 q 458 51 480 73 q 409 14 435 28 q 350 -7 382 0 q 273 -14 317 -14 q 188 1 227 -14 q 120 45 149 16 q 75 120 91 75 q 58 227 58 165 q 136 405 58 347 q 367 468 213 462 l 488 472 l 488 529 q 460 598 488 576 q 385 621 433 621 q 289 606 336 621 q 196 568 243 592 l 129 705 q 255 755 186 737 q 400 774 324 774 q 617 707 542 774 q 693 505 693 641 l 693 0 l 549 0 m 488 351 l 419 349 q 349 338 378 347 q 303 312 321 328 q 278 274 286 296 q 271 225 271 252 q 294 158 271 178 q 354 138 317 138 q 407 148 382 138 q 449 177 431 157 q 477 224 467 196 q 488 289 488 252 l 488 351 m 172 953 q 180 994 172 977 q 200 1022 187 1011 q 230 1039 212 1034 q 267 1044 247 1044 q 303 1039 286 1044 q 334 1022 321 1034 q 354 994 347 1011 q 362 953 362 977 q 354 913 362 930 q 334 885 347 896 q 303 868 321 873 q 267 863 286 863 q 230 868 247 863 q 200 885 212 873 q 180 913 187 896 q 172 953 172 930 m 446 953 q 453 994 446 977 q 473 1022 460 1011 q 504 1039 486 1034 q 542 1044 522 1044 q 578 1039 561 1044 q 609 1022 595 1034 q 630 994 622 1011 q 637 953 637 977 q 630 913 637 930 q 609 885 622 896 q 578 868 595 873 q 542 863 561 863 q 473 885 501 863 q 446 953 446 907 z "},"å":{"ha":798,"x_min":58,"x_max":693,"o":"m 549 0 l 509 103 l 503 103 q 458 51 480 73 q 409 14 435 28 q 350 -7 382 0 q 273 -14 317 -14 q 188 1 227 -14 q 120 45 149 16 q 75 120 91 75 q 58 227 58 165 q 136 405 58 347 q 367 468 213 462 l 488 472 l 488 529 q 460 598 488 576 q 385 621 433 621 q 289 606 336 621 q 196 568 243 592 l 129 705 q 255 755 186 737 q 400 774 324 774 q 617 707 542 774 q 693 505 693 641 l 693 0 l 549 0 m 488 351 l 419 349 q 349 338 378 347 q 303 312 321 328 q 278 274 286 296 q 271 225 271 252 q 294 158 271 178 q 354 138 317 138 q 407 148 382 138 q 449 177 431 157 q 477 224 467 196 q 488 289 488 252 l 488 351 m 571 1003 q 558 935 571 965 q 521 884 545 905 q 467 851 498 863 q 399 840 435 840 q 330 851 361 840 q 277 883 299 863 q 243 934 255 904 q 231 1002 231 964 q 243 1069 231 1039 q 277 1119 255 1099 q 330 1151 299 1140 q 399 1162 361 1162 q 466 1151 435 1162 q 520 1119 497 1140 q 557 1069 544 1099 q 571 1003 571 1040 m 464 1002 q 446 1049 464 1032 q 399 1067 427 1067 q 352 1049 370 1067 q 334 1002 334 1032 q 350 954 334 971 q 399 936 366 936 q 446 954 427 936 q 464 1002 464 971 z "},"æ":{"ha":1225,"x_min":58,"x_max":1158,"o":"m 860 -14 q 699 21 771 -14 q 579 126 626 55 q 522 63 550 90 q 460 20 493 37 q 385 -5 427 3 q 288 -14 343 -14 q 200 1 241 -14 q 126 45 158 16 q 77 120 95 75 q 58 227 58 165 q 136 405 58 347 q 367 468 213 462 l 488 472 l 488 529 q 460 598 488 576 q 385 621 433 621 q 289 606 336 621 q 196 568 243 592 l 129 705 q 255 755 186 737 q 400 774 324 774 q 619 685 545 774 q 832 772 705 772 q 968 750 907 772 q 1071 683 1029 727 q 1136 575 1113 639 q 1158 428 1158 511 l 1158 328 l 696 328 q 710 249 697 284 q 745 190 722 214 q 800 153 768 166 q 873 140 832 140 q 997 155 937 140 q 1116 200 1056 170 l 1116 40 q 1061 16 1088 26 q 1003 -1 1034 6 q 937 -11 972 -7 q 860 -14 902 -14 m 488 351 l 419 349 q 349 338 378 347 q 303 312 321 328 q 278 274 286 296 q 271 225 271 252 q 294 158 271 178 q 354 138 317 138 q 407 148 382 138 q 449 177 431 157 q 477 224 467 196 q 488 289 488 252 l 488 351 m 833 625 q 742 587 778 625 q 700 465 705 548 l 964 465 q 955 529 963 500 q 931 579 947 558 q 890 613 915 601 q 833 625 866 625 z "},"ç":{"ha":693,"x_min":69,"x_max":648,"o":"m 424 -14 q 277 9 342 -14 q 165 78 212 31 q 94 199 119 125 q 69 375 69 273 q 95 565 69 488 q 166 687 120 641 q 278 753 213 733 q 424 772 344 772 q 540 758 482 772 q 648 718 597 744 l 589 561 q 503 593 544 581 q 424 606 461 606 q 315 548 349 606 q 281 376 281 491 q 315 208 281 262 q 421 154 349 154 q 528 169 480 154 q 627 208 576 184 l 627 36 q 578 14 602 24 q 530 -1 554 5 q 480 -11 506 -7 q 424 -14 454 -14 m 528 -170 q 517 -239 528 -208 q 482 -290 507 -269 q 417 -322 458 -311 q 318 -334 377 -334 q 263 -330 288 -334 q 219 -319 239 -326 l 219 -205 q 242 -211 229 -208 q 268 -215 254 -213 q 293 -218 281 -217 q 316 -220 306 -220 q 350 -211 336 -220 q 365 -178 365 -201 q 340 -133 365 -153 q 252 -104 315 -114 l 305 0 l 436 0 l 418 -41 q 458 -60 439 -48 q 493 -87 478 -71 q 518 -124 509 -103 q 528 -170 528 -144 z "},"è":{"ha":807,"x_min":69,"x_max":741,"o":"m 415 625 q 324 587 360 625 q 282 465 288 548 l 546 465 q 537 529 545 500 q 513 579 529 558 q 472 613 496 601 q 415 625 448 625 m 441 -14 q 292 10 360 -14 q 174 82 223 34 q 97 202 124 130 q 69 374 69 275 q 94 548 69 473 q 164 672 119 623 q 273 747 210 722 q 414 772 336 772 q 550 750 489 772 q 653 683 610 727 q 718 575 695 639 q 741 428 741 511 l 741 328 l 278 328 q 292 249 279 284 q 327 190 304 214 q 382 153 350 166 q 456 140 414 140 q 521 144 490 140 q 581 155 552 148 q 639 174 610 163 q 697 200 667 185 l 697 40 q 643 16 670 26 q 585 -1 615 6 q 519 -11 554 -7 q 441 -14 484 -14 m 392 842 q 337 889 369 861 q 273 947 304 917 q 216 1004 242 977 q 180 1050 191 1031 l 180 1064 l 412 1064 q 437 1014 422 1041 q 467 959 452 986 q 499 905 483 931 q 530 860 515 880 l 530 842 l 392 842 z "},"é":{"ha":807,"x_min":69,"x_max":741,"o":"m 415 625 q 324 587 360 625 q 282 465 288 548 l 546 465 q 537 529 545 500 q 513 579 529 558 q 472 613 496 601 q 415 625 448 625 m 441 -14 q 292 10 360 -14 q 174 82 223 34 q 97 202 124 130 q 69 374 69 275 q 94 548 69 473 q 164 672 119 623 q 273 747 210 722 q 414 772 336 772 q 550 750 489 772 q 653 683 610 727 q 718 575 695 639 q 741 428 741 511 l 741 328 l 278 328 q 292 249 279 284 q 327 190 304 214 q 382 153 350 166 q 456 140 414 140 q 521 144 490 140 q 581 155 552 148 q 639 174 610 163 q 697 200 667 185 l 697 40 q 643 16 670 26 q 585 -1 615 6 q 519 -11 554 -7 q 441 -14 484 -14 m 303 842 l 303 860 q 334 905 317 880 q 366 959 350 931 q 396 1014 382 986 q 421 1064 410 1041 l 653 1064 l 653 1050 q 631 1021 646 1038 q 599 985 617 1004 q 559 946 581 966 q 517 907 538 926 q 476 871 496 888 q 441 842 456 854 l 303 842 z "},"ê":{"ha":807,"x_min":69,"x_max":741,"o":"m 415 625 q 324 587 360 625 q 282 465 288 548 l 546 465 q 537 529 545 500 q 513 579 529 558 q 472 613 496 601 q 415 625 448 625 m 441 -14 q 292 10 360 -14 q 174 82 223 34 q 97 202 124 130 q 69 374 69 275 q 94 548 69 473 q 164 672 119 623 q 273 747 210 722 q 414 772 336 772 q 550 750 489 772 q 653 683 610 727 q 718 575 695 639 q 741 428 741 511 l 741 328 l 278 328 q 292 249 279 284 q 327 190 304 214 q 382 153 350 166 q 456 140 414 140 q 521 144 490 140 q 581 155 552 148 q 639 174 610 163 q 697 200 667 185 l 697 40 q 643 16 670 26 q 585 -1 615 6 q 519 -11 554 -7 q 441 -14 484 -14 m 555 842 q 484 894 521 865 q 411 961 446 923 q 339 894 374 923 q 269 842 304 865 l 132 842 l 132 860 q 171 905 149 880 q 214 959 192 931 q 256 1014 236 986 q 292 1064 277 1041 l 533 1064 q 568 1014 547 1041 q 610 959 588 986 q 654 905 632 931 q 693 860 676 880 l 693 842 l 555 842 z "},"ë":{"ha":807,"x_min":69,"x_max":741,"o":"m 415 625 q 324 587 360 625 q 282 465 288 548 l 546 465 q 537 529 545 500 q 513 579 529 558 q 472 613 496 601 q 415 625 448 625 m 441 -14 q 292 10 360 -14 q 174 82 223 34 q 97 202 124 130 q 69 374 69 275 q 94 548 69 473 q 164 672 119 623 q 273 747 210 722 q 414 772 336 772 q 550 750 489 772 q 653 683 610 727 q 718 575 695 639 q 741 428 741 511 l 741 328 l 278 328 q 292 249 279 284 q 327 190 304 214 q 382 153 350 166 q 456 140 414 140 q 521 144 490 140 q 581 155 552 148 q 639 174 610 163 q 697 200 667 185 l 697 40 q 643 16 670 26 q 585 -1 615 6 q 519 -11 554 -7 q 441 -14 484 -14 m 180 953 q 188 994 180 977 q 208 1022 195 1011 q 238 1039 220 1034 q 275 1044 255 1044 q 312 1039 294 1044 q 342 1022 329 1034 q 362 994 355 1011 q 370 953 370 977 q 362 913 370 930 q 342 885 355 896 q 312 868 329 873 q 275 863 294 863 q 238 868 255 863 q 208 885 220 873 q 188 913 195 896 q 180 953 180 930 m 454 953 q 461 994 454 977 q 481 1022 469 1011 q 512 1039 494 1034 q 550 1044 530 1044 q 586 1039 569 1044 q 617 1022 604 1034 q 638 994 630 1011 q 646 953 646 977 q 638 913 646 930 q 617 885 630 896 q 586 868 604 873 q 550 863 569 863 q 481 885 509 863 q 454 953 454 907 z "},"ì":{"ha":424,"x_min":-30,"x_max":320,"o":"m 315 0 l 109 0 l 109 758 l 315 758 l 315 0 m 182 842 q 127 889 159 861 q 64 947 95 917 q 7 1004 33 977 q -30 1050 -19 1031 l -30 1064 l 202 1064 q 228 1014 213 1041 q 258 959 242 986 q 290 905 273 931 q 320 860 306 880 l 320 842 l 182 842 z "},"í":{"ha":424,"x_min":98,"x_max":448,"o":"m 315 0 l 109 0 l 109 758 l 315 758 l 315 0 m 98 842 l 98 860 q 129 905 113 880 q 161 959 145 931 q 191 1014 177 986 q 216 1064 205 1041 l 448 1064 l 448 1050 q 427 1021 441 1038 q 394 985 412 1004 q 355 946 376 966 q 312 907 334 926 q 271 871 291 888 q 236 842 252 854 l 98 842 z "},"î":{"ha":424,"x_min":-71,"x_max":491,"o":"m 315 0 l 109 0 l 109 758 l 315 758 l 315 0 m 353 842 q 281 894 319 865 q 209 961 244 923 q 137 894 172 923 q 67 842 102 865 l -71 842 l -71 860 q -32 905 -53 880 q 12 959 -10 931 q 54 1014 34 986 q 90 1064 75 1041 l 331 1064 q 366 1014 345 1041 q 408 959 386 986 q 452 905 430 931 q 491 860 474 880 l 491 842 l 353 842 z "},"ï":{"ha":424,"x_min":-22,"x_max":444,"o":"m 315 0 l 109 0 l 109 758 l 315 758 l 315 0 m -22 953 q -14 994 -22 977 q 6 1022 -7 1011 q 36 1039 18 1034 q 73 1044 53 1044 q 110 1039 92 1044 q 140 1022 127 1034 q 160 994 153 1011 q 168 953 168 977 q 160 913 168 930 q 140 885 153 896 q 110 868 127 873 q 73 863 92 863 q 36 868 53 863 q 6 885 18 873 q -14 913 -7 896 q -22 953 -22 930 m 252 953 q 259 994 252 977 q 279 1022 267 1011 q 310 1039 292 1034 q 348 1044 328 1044 q 384 1039 367 1044 q 415 1022 401 1034 q 436 994 428 1011 q 444 953 444 977 q 436 913 444 930 q 415 885 428 896 q 384 868 401 873 q 348 863 367 863 q 279 885 307 863 q 252 953 252 907 z "},"ð":{"ha":802,"x_min":50,"x_max":743,"o":"m 310 888 q 260 918 287 902 q 205 950 234 935 l 271 1065 q 363 1019 320 1042 q 446 970 407 996 l 599 1064 l 667 960 l 549 888 q 634 788 597 841 q 695 673 671 735 q 731 541 719 612 q 743 389 743 471 q 719 218 743 292 q 649 92 694 143 q 539 13 604 40 q 395 -14 475 -14 q 256 9 319 -14 q 148 77 193 33 q 76 185 102 121 q 50 332 50 249 q 72 478 50 414 q 134 586 94 542 q 229 652 174 629 q 350 675 284 675 q 461 653 415 675 q 529 599 507 632 l 543 600 q 490 712 524 660 q 411 803 456 765 l 254 705 l 186 811 l 310 888 m 532 361 q 524 422 532 393 q 499 473 516 451 q 457 509 483 496 q 397 522 432 522 q 293 474 324 522 q 261 330 261 427 q 269 252 261 288 q 293 192 277 217 q 336 153 310 167 q 397 139 361 139 q 500 194 469 139 q 532 361 532 250 z "},"ñ":{"ha":871,"x_min":109,"x_max":766,"o":"m 766 0 l 559 0 l 559 443 q 535 566 559 525 q 456 607 510 607 q 388 591 415 607 q 345 543 361 574 q 322 464 329 511 q 315 357 315 417 l 315 0 l 109 0 l 109 758 l 267 758 l 294 661 l 306 661 q 346 711 322 690 q 397 746 369 732 q 456 766 425 760 q 519 772 487 772 q 621 756 575 772 q 699 707 666 741 q 749 620 731 673 q 766 494 766 568 l 766 0 m 323 913 q 290 895 302 913 q 269 840 277 877 l 168 840 q 186 934 172 895 q 221 999 199 973 q 273 1037 243 1025 q 339 1050 303 1050 q 393 1039 367 1050 q 446 1015 420 1028 q 497 990 472 1002 q 547 979 523 979 q 581 997 568 979 q 602 1051 593 1015 l 703 1051 q 685 958 699 998 q 648 893 671 919 q 596 854 626 867 q 532 842 567 842 q 477 853 505 842 q 425 877 450 864 q 373 902 399 890 q 323 913 348 913 z "},"ò":{"ha":832,"x_min":69,"x_max":762,"o":"m 281 380 q 313 210 281 267 q 416 153 345 153 q 519 210 488 153 q 551 380 551 268 q 519 550 551 494 q 415 606 488 606 q 312 550 344 606 q 281 380 281 494 m 762 380 q 738 212 762 286 q 669 89 714 139 q 559 13 624 39 q 414 -14 494 -14 q 275 13 338 -14 q 166 89 212 39 q 95 212 121 139 q 69 380 69 286 q 93 548 69 475 q 162 671 117 621 q 272 747 208 721 q 418 772 336 772 q 556 747 493 772 q 665 671 619 721 q 736 548 711 621 q 762 380 762 475 m 397 842 q 341 889 374 861 q 278 947 309 917 q 221 1004 247 977 q 184 1050 195 1031 l 184 1064 l 416 1064 q 442 1014 427 1041 q 472 959 456 986 q 504 905 488 931 q 534 860 520 880 l 534 842 l 397 842 z "},"ó":{"ha":832,"x_min":69,"x_max":762,"o":"m 281 380 q 313 210 281 267 q 416 153 345 153 q 519 210 488 153 q 551 380 551 268 q 519 550 551 494 q 415 606 488 606 q 312 550 344 606 q 281 380 281 494 m 762 380 q 738 212 762 286 q 669 89 714 139 q 559 13 624 39 q 414 -14 494 -14 q 275 13 338 -14 q 166 89 212 39 q 95 212 121 139 q 69 380 69 286 q 93 548 69 475 q 162 671 117 621 q 272 747 208 721 q 418 772 336 772 q 556 747 493 772 q 665 671 619 721 q 736 548 711 621 q 762 380 762 475 m 294 842 l 294 860 q 325 905 309 880 q 357 959 341 931 q 387 1014 373 986 q 412 1064 401 1041 l 644 1064 l 644 1050 q 623 1021 637 1038 q 590 985 608 1004 q 551 946 572 966 q 508 907 530 926 q 467 871 487 888 q 432 842 448 854 l 294 842 z "},"ô":{"ha":832,"x_min":69,"x_max":762,"o":"m 281 380 q 313 210 281 267 q 416 153 345 153 q 519 210 488 153 q 551 380 551 268 q 519 550 551 494 q 415 606 488 606 q 312 550 344 606 q 281 380 281 494 m 762 380 q 738 212 762 286 q 669 89 714 139 q 559 13 624 39 q 414 -14 494 -14 q 275 13 338 -14 q 166 89 212 39 q 95 212 121 139 q 69 380 69 286 q 93 548 69 475 q 162 671 117 621 q 272 747 208 721 q 418 772 336 772 q 556 747 493 772 q 665 671 619 721 q 736 548 711 621 q 762 380 762 475 m 557 842 q 485 894 522 865 q 412 961 448 923 q 340 894 376 923 q 271 842 305 865 l 133 842 l 133 860 q 172 905 151 880 q 215 959 193 931 q 258 1014 237 986 q 293 1064 278 1041 l 534 1064 q 569 1014 549 1041 q 611 959 589 986 q 655 905 633 931 q 694 860 677 880 l 694 842 l 557 842 z "},"õ":{"ha":832,"x_min":69,"x_max":762,"o":"m 281 380 q 313 210 281 267 q 416 153 345 153 q 519 210 488 153 q 551 380 551 268 q 519 550 551 494 q 415 606 488 606 q 312 550 344 606 q 281 380 281 494 m 762 380 q 738 212 762 286 q 669 89 714 139 q 559 13 624 39 q 414 -14 494 -14 q 275 13 338 -14 q 166 89 212 39 q 95 212 121 139 q 69 380 69 286 q 93 548 69 475 q 162 671 117 621 q 272 747 208 721 q 418 772 336 772 q 556 747 493 772 q 665 671 619 721 q 736 548 711 621 q 762 380 762 475 m 301 913 q 268 895 280 913 q 247 840 255 877 l 146 840 q 163 934 150 895 q 199 999 177 973 q 251 1037 221 1025 q 317 1050 281 1050 q 371 1039 345 1050 q 424 1015 397 1028 q 475 990 450 1002 q 525 979 500 979 q 558 997 546 979 q 579 1051 570 1015 l 680 1051 q 662 958 676 998 q 626 893 648 919 q 574 854 604 867 q 509 842 545 842 q 455 853 482 842 q 402 877 428 864 q 351 902 376 890 q 301 913 326 913 z "},"ö":{"ha":832,"x_min":69,"x_max":762,"o":"m 281 380 q 313 210 281 267 q 416 153 345 153 q 519 210 488 153 q 551 380 551 268 q 519 550 551 494 q 415 606 488 606 q 312 550 344 606 q 281 380 281 494 m 762 380 q 738 212 762 286 q 669 89 714 139 q 559 13 624 39 q 414 -14 494 -14 q 275 13 338 -14 q 166 89 212 39 q 95 212 121 139 q 69 380 69 286 q 93 548 69 475 q 162 671 117 621 q 272 747 208 721 q 418 772 336 772 q 556 747 493 772 q 665 671 619 721 q 736 548 711 621 q 762 380 762 475 m 180 953 q 188 994 180 977 q 208 1022 195 1011 q 238 1039 220 1034 q 275 1044 255 1044 q 312 1039 294 1044 q 342 1022 329 1034 q 362 994 355 1011 q 370 953 370 977 q 362 913 370 930 q 342 885 355 896 q 312 868 329 873 q 275 863 294 863 q 238 868 255 863 q 208 885 220 873 q 188 913 195 896 q 180 953 180 930 m 454 953 q 461 994 454 977 q 481 1022 469 1011 q 512 1039 494 1034 q 550 1044 530 1044 q 586 1039 569 1044 q 617 1022 604 1034 q 638 994 630 1011 q 646 953 646 977 q 638 913 646 930 q 617 885 630 896 q 586 868 604 873 q 550 863 569 863 q 481 885 509 863 q 454 953 454 907 z "},"÷":{"ha":765,"x_min":60,"x_max":705,"o":"m 60 415 l 60 564 l 705 564 l 705 415 l 60 415 m 288 253 q 295 301 288 281 q 315 333 302 321 q 346 350 328 345 q 382 355 363 355 q 418 350 401 355 q 448 333 435 345 q 468 301 460 321 q 476 253 476 281 q 468 206 476 226 q 448 174 460 186 q 418 156 435 161 q 382 150 401 150 q 346 156 363 150 q 315 174 328 161 q 295 206 302 186 q 288 253 288 226 m 288 726 q 295 774 288 755 q 315 806 302 794 q 346 824 328 819 q 382 829 363 829 q 418 824 401 829 q 448 806 435 819 q 468 774 460 794 q 476 726 476 755 q 468 680 476 699 q 448 648 460 661 q 418 630 435 635 q 382 624 401 624 q 346 630 363 624 q 315 648 328 635 q 295 680 302 661 q 288 726 288 699 z "},"ø":{"ha":832,"x_min":69,"x_max":762,"o":"m 762 380 q 738 212 762 286 q 669 89 714 139 q 559 13 624 39 q 414 -14 494 -14 q 340 -7 375 -14 q 272 12 304 0 l 233 -52 l 123 9 l 170 85 q 96 209 123 135 q 69 380 69 283 q 93 548 69 475 q 162 671 117 621 q 272 747 208 721 q 418 772 336 772 q 499 764 460 772 q 572 739 538 755 l 606 793 l 714 728 l 672 661 q 739 542 715 612 q 762 380 762 471 m 281 380 q 289 278 281 322 l 481 589 q 415 606 454 606 q 312 550 344 606 q 281 380 281 494 m 551 380 q 547 457 551 424 l 366 163 q 390 155 377 157 q 416 153 402 153 q 519 210 488 153 q 551 380 551 268 z "},"ù":{"ha":871,"x_min":104,"x_max":762,"o":"m 604 0 l 576 97 l 566 97 q 525 47 549 68 q 474 13 502 26 q 415 -7 446 -1 q 351 -14 384 -14 q 250 2 296 -14 q 172 52 205 18 q 122 138 140 86 q 104 264 104 191 l 104 758 l 311 758 l 311 315 q 336 192 311 233 q 415 151 361 151 q 483 168 456 151 q 526 216 510 184 q 549 294 542 248 q 555 401 555 341 l 555 758 l 762 758 l 762 0 l 604 0 m 395 842 q 340 889 372 861 q 277 947 308 917 q 220 1004 245 977 q 183 1050 194 1031 l 183 1064 l 415 1064 q 440 1014 426 1041 q 471 959 455 986 q 503 905 486 931 q 533 860 519 880 l 533 842 l 395 842 z "},"ú":{"ha":871,"x_min":104,"x_max":762,"o":"m 604 0 l 576 97 l 566 97 q 525 47 549 68 q 474 13 502 26 q 415 -7 446 -1 q 351 -14 384 -14 q 250 2 296 -14 q 172 52 205 18 q 122 138 140 86 q 104 264 104 191 l 104 758 l 311 758 l 311 315 q 336 192 311 233 q 415 151 361 151 q 483 168 456 151 q 526 216 510 184 q 549 294 542 248 q 555 401 555 341 l 555 758 l 762 758 l 762 0 l 604 0 m 313 842 l 313 860 q 343 905 327 880 q 375 959 359 931 q 406 1014 391 986 q 431 1064 420 1041 l 663 1064 l 663 1050 q 641 1021 655 1038 q 608 985 627 1004 q 569 946 590 966 q 527 907 548 926 q 486 871 505 888 q 450 842 466 854 l 313 842 z "},"û":{"ha":871,"x_min":104,"x_max":762,"o":"m 604 0 l 576 97 l 566 97 q 525 47 549 68 q 474 13 502 26 q 415 -7 446 -1 q 351 -14 384 -14 q 250 2 296 -14 q 172 52 205 18 q 122 138 140 86 q 104 264 104 191 l 104 758 l 311 758 l 311 315 q 336 192 311 233 q 415 151 361 151 q 483 168 456 151 q 526 216 510 184 q 549 294 542 248 q 555 401 555 341 l 555 758 l 762 758 l 762 0 l 604 0 m 571 842 q 499 894 536 865 q 427 961 462 923 q 355 894 390 923 q 285 842 319 865 l 147 842 l 147 860 q 186 905 165 880 q 230 959 208 931 q 272 1014 252 986 q 307 1064 292 1041 l 549 1064 q 583 1014 563 1041 q 626 959 604 986 q 670 905 648 931 q 709 860 692 880 l 709 842 l 571 842 z "},"ü":{"ha":871,"x_min":104,"x_max":762,"o":"m 604 0 l 576 97 l 566 97 q 525 47 549 68 q 474 13 502 26 q 415 -7 446 -1 q 351 -14 384 -14 q 250 2 296 -14 q 172 52 205 18 q 122 138 140 86 q 104 264 104 191 l 104 758 l 311 758 l 311 315 q 336 192 311 233 q 415 151 361 151 q 483 168 456 151 q 526 216 510 184 q 549 294 542 248 q 555 401 555 341 l 555 758 l 762 758 l 762 0 l 604 0 m 200 953 q 208 994 200 977 q 228 1022 215 1011 q 257 1039 240 1034 q 294 1044 275 1044 q 331 1039 314 1044 q 361 1022 349 1034 q 382 994 374 1011 q 390 953 390 977 q 382 913 390 930 q 361 885 374 896 q 331 868 349 873 q 294 863 314 863 q 257 868 275 863 q 228 885 240 873 q 208 913 215 896 q 200 953 200 930 m 473 953 q 481 994 473 977 q 501 1022 488 1011 q 532 1039 514 1034 q 570 1044 549 1044 q 606 1039 589 1044 q 636 1022 623 1034 q 657 994 650 1011 q 665 953 665 977 q 657 913 665 930 q 636 885 650 896 q 606 868 623 873 q 570 863 589 863 q 501 885 529 863 q 473 953 473 907 z "},"ý":{"ha":749,"x_min":0,"x_max":749,"o":"m 0 758 l 227 758 l 349 332 q 365 256 359 296 q 371 184 370 216 l 375 184 q 379 219 376 200 q 385 258 381 238 q 392 297 388 277 q 401 332 397 316 l 521 758 l 749 758 l 449 -97 q 334 -275 407 -217 q 153 -334 262 -334 q 92 -330 117 -334 q 47 -322 66 -326 l 47 -158 q 83 -164 62 -161 q 129 -167 105 -167 q 184 -158 161 -167 q 224 -133 208 -149 q 253 -95 241 -117 q 273 -45 264 -73 l 286 -7 l 0 758 m 267 842 l 267 860 q 297 905 281 880 q 329 959 313 931 q 359 1014 345 986 q 385 1064 374 1041 l 616 1064 l 616 1050 q 595 1021 609 1038 q 562 985 581 1004 q 523 946 544 966 q 480 907 502 926 q 439 871 459 888 q 404 842 420 854 l 267 842 z "},"þ":{"ha":844,"x_min":109,"x_max":775,"o":"m 315 660 q 348 704 329 684 q 391 740 366 724 q 445 764 415 755 q 513 772 475 772 q 619 747 571 772 q 702 673 667 722 q 756 550 736 623 q 775 380 775 477 q 756 210 775 283 q 703 86 737 136 q 620 12 668 37 q 513 -14 572 -14 q 445 -6 475 -14 q 390 14 414 1 q 348 43 366 26 q 315 79 330 60 l 306 79 q 311 37 308 58 q 314 2 313 20 q 315 -26 315 -16 l 315 -334 l 109 -334 l 109 1055 l 315 1055 l 315 790 q 314 751 315 774 q 311 709 313 729 q 306 660 308 685 l 315 660 m 443 607 q 384 594 408 607 q 345 557 360 582 q 323 493 330 532 q 315 404 317 455 l 315 382 q 322 284 315 327 q 343 213 328 241 q 383 169 358 184 q 444 154 408 154 q 535 213 506 154 q 564 383 564 271 q 535 551 564 495 q 443 607 506 607 z "},"ÿ":{"ha":749,"x_min":0,"x_max":749,"o":"m 0 758 l 227 758 l 349 332 q 365 256 359 296 q 371 184 370 216 l 375 184 q 379 219 376 200 q 385 258 381 238 q 392 297 388 277 q 401 332 397 316 l 521 758 l 749 758 l 449 -97 q 334 -275 407 -217 q 153 -334 262 -334 q 92 -330 117 -334 q 47 -322 66 -326 l 47 -158 q 83 -164 62 -161 q 129 -167 105 -167 q 184 -158 161 -167 q 224 -133 208 -149 q 253 -95 241 -117 q 273 -45 264 -73 l 286 -7 l 0 758 m 142 953 q 150 994 142 977 q 170 1022 157 1011 q 200 1039 182 1034 q 237 1044 217 1044 q 274 1039 256 1044 q 304 1022 291 1034 q 325 994 317 1011 q 332 953 332 977 q 325 913 332 930 q 304 885 317 896 q 274 868 291 873 q 237 863 256 863 q 200 868 217 863 q 170 885 182 873 q 150 913 157 896 q 142 953 142 930 m 416 953 q 423 994 416 977 q 444 1022 431 1011 q 474 1039 456 1034 q 512 1044 492 1044 q 548 1039 531 1044 q 579 1022 566 1034 q 600 994 592 1011 q 608 953 608 977 q 600 913 608 930 q 579 885 592 896 q 548 868 566 873 q 512 863 531 863 q 444 885 471 863 q 416 953 416 907 z "},"ı":{"ha":424,"x_min":109,"x_max":315,"o":"m 315 0 l 109 0 l 109 758 l 315 758 l 315 0 z "},"ˆ":{"ha":802,"x_min":119,"x_max":681,"o":"m 543 842 q 471 894 509 865 q 399 961 434 923 q 327 894 362 923 q 257 842 292 865 l 119 842 l 119 860 q 158 905 137 880 q 202 959 180 931 q 244 1014 224 986 q 279 1064 264 1041 l 521 1064 q 555 1014 535 1041 q 598 959 576 986 q 642 905 620 931 q 681 860 664 880 l 681 842 l 543 842 z "},"˚":{"ha":802,"x_min":231,"x_max":571,"o":"m 571 1003 q 558 935 571 965 q 521 884 545 905 q 467 851 498 863 q 399 840 435 840 q 330 851 361 840 q 277 883 299 863 q 243 934 255 904 q 231 1002 231 964 q 243 1069 231 1039 q 277 1119 255 1099 q 330 1151 299 1140 q 399 1162 361 1162 q 466 1151 435 1162 q 520 1119 497 1140 q 557 1069 544 1099 q 571 1003 571 1040 m 464 1002 q 446 1049 464 1032 q 399 1067 427 1067 q 352 1049 370 1067 q 334 1002 334 1032 q 350 954 334 971 q 399 936 366 936 q 446 954 427 936 q 464 1002 464 971 z "},"˜":{"ha":802,"x_min":134,"x_max":668,"o":"m 289 913 q 255 895 268 913 q 235 840 243 877 l 134 840 q 151 934 138 895 q 187 999 165 973 q 239 1037 209 1025 q 304 1050 269 1050 q 359 1039 332 1050 q 411 1015 385 1028 q 463 990 437 1002 q 513 979 488 979 q 546 997 534 979 q 567 1051 558 1015 l 668 1051 q 650 958 664 998 q 614 893 636 919 q 562 854 591 867 q 497 842 532 842 q 443 853 470 842 q 390 877 416 864 q 339 902 364 890 q 289 913 313 913 z "},"–":{"ha":694,"x_min":56,"x_max":639,"o":"m 56 296 l 56 452 l 639 452 l 639 296 l 56 296 z "},"—":{"ha":1389,"x_min":56,"x_max":1333,"o":"m 56 296 l 56 452 l 1333 452 l 1333 296 l 56 296 z "},"‘":{"ha":298,"x_min":16,"x_max":283,"o":"m 25 652 l 16 667 q 38 745 25 703 q 67 828 52 786 q 100 912 83 870 q 135 991 118 954 l 283 991 q 263 905 273 950 q 244 816 254 861 q 228 730 235 772 q 215 652 220 688 l 25 652 z "},"’":{"ha":298,"x_min":16,"x_max":283,"o":"m 273 991 l 283 977 q 261 898 274 939 q 232 815 248 857 q 198 731 216 772 q 164 652 181 690 l 16 652 q 35 737 25 692 q 54 827 45 782 q 71 913 63 871 q 83 991 78 956 l 273 991 z "},"‚":{"ha":403,"x_min":43,"x_max":311,"o":"m 311 146 q 289 68 302 109 q 259 -16 275 26 q 226 -99 243 -58 q 192 -179 209 -141 l 43 -179 q 63 -93 53 -138 q 82 -4 73 -48 q 98 83 91 41 q 111 161 106 125 l 301 161 l 311 146 z "},"“":{"ha":615,"x_min":16,"x_max":600,"o":"m 332 667 q 355 745 341 703 q 384 828 368 786 q 417 912 399 870 q 452 991 435 954 l 600 991 q 580 905 590 950 q 561 816 570 861 q 545 730 552 772 q 532 652 537 688 l 342 652 l 332 667 m 16 667 q 38 745 25 703 q 67 828 52 786 q 100 912 83 870 q 135 991 118 954 l 283 991 q 263 905 273 950 q 244 816 254 861 q 228 730 235 772 q 215 652 220 688 l 25 652 l 16 667 z "},"”":{"ha":615,"x_min":16,"x_max":600,"o":"m 283 977 q 261 898 274 939 q 232 815 248 857 q 198 731 216 772 q 164 652 181 690 l 16 652 q 35 737 25 692 q 54 827 45 782 q 71 913 63 871 q 83 991 78 956 l 273 991 l 283 977 m 600 977 q 577 898 591 939 q 548 815 564 857 q 515 731 532 772 q 481 652 498 690 l 332 652 q 352 737 342 692 q 371 827 361 782 q 387 913 380 871 q 400 991 395 956 l 590 991 l 600 977 z "},"„":{"ha":720,"x_min":43,"x_max":628,"o":"m 311 146 q 289 68 302 109 q 259 -16 275 26 q 226 -99 243 -58 q 192 -179 209 -141 l 43 -179 q 63 -93 53 -138 q 82 -4 73 -48 q 98 83 91 41 q 111 161 106 125 l 301 161 l 311 146 m 628 146 q 605 68 618 109 q 576 -16 592 26 q 543 -99 560 -58 q 509 -179 526 -141 l 359 -179 q 379 -93 370 -138 q 398 -4 389 -48 q 415 83 408 41 q 428 161 422 125 l 618 161 l 628 146 z "},"•":{"ha":522,"x_min":66,"x_max":456,"o":"m 66 507 q 81 606 66 566 q 122 673 96 647 q 184 710 149 699 q 261 722 220 722 q 337 710 301 722 q 399 673 372 699 q 440 606 425 647 q 456 507 456 566 q 440 409 456 450 q 399 342 425 368 q 337 304 372 316 q 261 292 301 292 q 184 304 220 292 q 122 342 149 316 q 81 409 96 368 q 66 507 66 450 z "},"‹":{"ha":469,"x_min":56,"x_max":414,"o":"m 56 389 l 265 697 l 414 616 l 267 380 l 414 144 l 265 64 l 56 371 l 56 389 z "},"›":{"ha":469,"x_min":56,"x_max":414,"o":"m 414 371 l 204 64 l 56 144 l 203 380 l 56 616 l 204 697 l 414 389 l 414 371 z "},"⁄":{"ha":180,"x_min":-267,"x_max":446,"o":"m 446 991 l -104 0 l -267 0 l 283 991 l 446 991 z "}}}
